<svg width="29" height="30" viewBox="0 0 29 30" fill="none" xmlns="http://www.w3.org/2000/svg">
<path d="M14.4804 2.10254C11.8411 2.10565 9.31084 3.15548 7.44459 5.02173C5.57834 6.88798 4.52851 9.41826 4.5254 12.0575C4.52224 14.2144 5.22676 16.3127 6.53088 18.0305C6.53088 18.0305 6.80238 18.388 6.84673 18.4396L14.4804 27.4425L22.1177 18.4351C22.1575 18.3871 22.4299 18.0305 22.4299 18.0305L22.4308 18.0278C23.7343 16.3107 24.4385 14.2134 24.4354 12.0575C24.4323 9.41826 23.3825 6.88798 21.5162 5.02173C19.65 3.15548 17.1197 2.10565 14.4804 2.10254ZM14.4804 15.6775C13.7644 15.6775 13.0645 15.4652 12.4692 15.0675C11.8739 14.6697 11.4099 14.1043 11.136 13.4429C10.862 12.7814 10.7903 12.0535 10.93 11.3513C11.0696 10.6491 11.4144 10.0041 11.9207 9.49781C12.4269 8.99155 13.072 8.64677 13.7742 8.5071C14.4764 8.36742 15.2042 8.43911 15.8657 8.7131C16.5272 8.98708 17.0926 9.45107 17.4903 10.0464C17.8881 10.6417 18.1004 11.3416 18.1004 12.0575C18.0992 13.0173 17.7174 13.9373 17.0388 14.6159C16.3602 15.2946 15.4401 15.6763 14.4804 15.6775Z" fill="white"/>
</svg>
