<svg width="31" height="31" viewBox="0 0 31 31" fill="none" xmlns="http://www.w3.org/2000/svg">
<g clip-path="url(#clip0_154_3965)">
<path d="M28.0938 0.726674H2.90625C2.33476 0.720858 1.78431 0.94199 1.37567 1.34155C0.967033 1.7411 0.733589 2.28645 0.726562 2.85792V28.1471C0.734859 28.7178 0.968862 29.2619 1.37736 29.6604C1.78586 30.0589 2.33559 30.2794 2.90625 30.2736H28.0938C28.6653 30.2781 29.2154 30.0562 29.6238 29.6564C30.0322 29.2566 30.2658 28.7114 30.2734 28.1399V2.85066C30.2632 2.28086 30.0286 1.73811 29.6204 1.34039C29.2123 0.942668 28.6636 0.722116 28.0938 0.726674Z" fill="#0076B2"/>
<path d="M5.1007 11.8018H9.48672V25.914H5.1007V11.8018ZM7.29492 4.77832C7.79798 4.77832 8.28973 4.92752 8.70797 5.20706C9.12621 5.48659 9.45215 5.88389 9.64455 6.3487C9.83695 6.8135 9.88717 7.32494 9.78885 7.81829C9.69053 8.31164 9.4481 8.76475 9.09221 9.1203C8.73633 9.47584 8.28299 9.71784 7.78955 9.81569C7.2961 9.91354 6.78472 9.86283 6.32009 9.66999C5.85547 9.47715 5.45848 9.15083 5.17934 8.73232C4.90021 8.31382 4.75148 7.82192 4.75195 7.31887C4.7526 6.64485 5.0208 5.99866 5.49763 5.52228C5.97446 5.04591 6.62091 4.77832 7.29492 4.77832ZM12.238 11.8018H16.4423V13.7393H16.5005C17.0866 12.63 18.5155 11.4603 20.6491 11.4603C25.0909 11.4506 25.9143 14.3738 25.9143 18.164V25.914H21.5283V19.048C21.5283 17.4132 21.4992 15.3086 19.2493 15.3086C16.9994 15.3086 16.6167 17.0911 16.6167 18.9414V25.914H12.238V11.8018Z" fill="white"/>
</g>
<defs>
<clipPath id="clip0_154_3965">
<rect width="31" height="31" fill="white"/>
</clipPath>
</defs>
</svg>
