<svg width="10" height="9" viewBox="0 0 10 9" fill="none" xmlns="http://www.w3.org/2000/svg">
<g clip-path="url(#clip0_154_3136)">
<path d="M3.81529 8.09131C3.51123 8.09131 3.22325 7.97794 3.03871 7.78248L0.541215 5.14593C0.463999 5.06451 0.407627 4.97173 0.375321 4.87288C0.343015 4.77404 0.335408 4.67108 0.352936 4.56989C0.370463 4.4687 0.412781 4.37126 0.477471 4.28315C0.54216 4.19503 0.627952 4.11796 0.729943 4.05635C0.831897 3.99449 0.948129 3.94931 1.07198 3.9234C1.19583 3.89749 1.32486 3.89136 1.45168 3.90537C1.5785 3.91938 1.70061 3.95325 1.81101 4.00503C1.92142 4.05681 2.01795 4.1255 2.09507 4.20714L3.7384 5.94064L7.87014 0.639624C8.00717 0.464599 8.22549 0.340142 8.47721 0.293552C8.72894 0.246963 8.99351 0.282045 9.2129 0.391104C9.66934 0.617844 9.80984 1.09813 9.52465 1.46337L4.6429 7.72384C4.55956 7.83119 4.4447 7.92067 4.30827 7.98451C4.17184 8.04835 4.01798 8.08463 3.86003 8.0902C3.84465 8.09131 3.83067 8.09131 3.81529 8.09131Z" fill="#929BFF"/>
</g>
<defs>
<clipPath id="clip0_154_3136">
<rect width="9.91499" height="8.13059" fill="white" transform="translate(0.0507812 0.117188)"/>
</clipPath>
</defs>
</svg>
