<svg width="10" height="10" viewBox="0 0 10 10" fill="none" xmlns="http://www.w3.org/2000/svg">
<g clip-path="url(#clip0_154_3141)">
<path d="M3.76829 9.00098C3.46587 9.00098 3.17943 8.88497 2.99589 8.68495L0.511832 5.98698C0.435032 5.90366 0.378963 5.80871 0.346831 5.70757C0.314699 5.60643 0.307133 5.50107 0.324566 5.39752C0.341999 5.29397 0.38409 5.19426 0.448431 5.10409C0.512772 5.01392 0.598103 4.93506 0.699545 4.87202C0.80095 4.80871 0.916557 4.76248 1.03974 4.73597C1.16292 4.70945 1.29126 4.70319 1.4174 4.71752C1.54353 4.73185 1.66499 4.76651 1.7748 4.8195C1.88461 4.87249 1.98062 4.94277 2.05733 5.02632L3.69182 6.8002L7.80133 1.37569C7.93762 1.19659 8.15476 1.06923 8.40513 1.02156C8.6555 0.973885 8.91865 1.00978 9.13687 1.12138C9.59085 1.35341 9.73059 1.84488 9.44694 2.21863L4.59145 8.62494C4.50856 8.73479 4.39431 8.82635 4.25862 8.89169C4.12293 8.95702 3.96989 8.99414 3.81279 8.99983C3.79749 9.00098 3.78359 9.00098 3.76829 9.00098Z" fill="#929BFF"/>
</g>
<defs>
<clipPath id="clip0_154_3141">
<rect width="9.86164" height="8.32" fill="white" transform="translate(0.0234375 0.84082)"/>
</clipPath>
</defs>
</svg>
