<svg width="26" height="25" viewBox="0 0 26 25" fill="none" xmlns="http://www.w3.org/2000/svg">
<g clip-path="url(#clip0_154_4247)">
<path d="M25.0862 12.2609C25.0862 19.0452 19.6097 24.5217 12.8253 24.5217C6.04098 24.5217 0.564453 19.0452 0.564453 12.2609C0.564453 5.47652 6.04098 0 12.8253 0C19.6097 0 25.0862 5.47652 25.0862 12.2609ZM9.80098 6.37565C9.80098 5.39478 8.98358 4.57739 7.7575 4.57739C6.53141 4.57739 5.71402 5.31304 5.71402 6.37565C5.71402 7.35652 6.53141 8.17391 7.7575 8.17391C8.98358 8.17391 9.80098 7.35652 9.80098 6.37565ZM9.2288 9.72696H6.20445V18.3913H9.31054V9.72696H9.2288ZM20.5088 13.8139C20.5088 11.0348 19.1192 9.23652 16.9123 9.23652C15.6862 9.23652 14.7871 9.97217 14.3784 11.1165L14.2966 9.8087H11.1905C11.1905 10.1357 11.2723 11.8522 11.2723 11.8522V18.473H14.3784V13.8957C14.3784 12.6696 14.9505 11.8522 15.8497 11.8522C16.7488 11.8522 17.4027 12.3426 17.4027 13.8957V18.473H20.5088V13.8139Z" fill="#A4A4A4"/>
</g>
<defs>
<clipPath id="clip0_154_4247">
<rect width="24.5217" height="24.5217" fill="white" transform="translate(0.564453)"/>
</clipPath>
</defs>
</svg>
