<svg width="26" height="25" viewBox="0 0 26 25" fill="none" xmlns="http://www.w3.org/2000/svg">
<g clip-path="url(#clip0_154_4249)">
<path fill-rule="evenodd" clip-rule="evenodd" d="M12.9132 24.5217C19.6847 24.5217 25.1741 19.0324 25.1741 12.2609C25.1741 5.48938 19.6847 0 12.9132 0C6.14172 0 0.652344 5.48938 0.652344 12.2609C0.652344 19.0324 6.14172 24.5217 12.9132 24.5217ZM15.3391 9.7572C16.2991 10.4334 17.4506 10.7958 18.631 10.7929V8.48763C17.9923 8.48787 17.3678 8.30298 16.835 7.9562C16.4605 7.71861 16.1392 7.40831 15.8907 7.04429C15.6422 6.68028 15.4718 6.27019 15.3898 5.83912C15.355 5.64602 15.3383 5.45019 15.34 5.2541H12.981V14.4735C12.981 14.8885 12.8478 15.2929 12.6004 15.629C12.353 15.965 12.004 16.2156 11.6033 16.3447C11.2027 16.474 10.7707 16.4752 10.3693 16.3483C9.96783 16.2215 9.61741 15.973 9.36794 15.6384C9.11856 15.3038 8.98287 14.9001 8.98042 14.4851C8.97796 14.0701 9.10875 13.6649 9.35413 13.3274C9.59951 12.9899 9.94698 12.7374 10.3469 12.6059C10.7468 12.4744 11.1787 12.4706 11.5809 12.5952V10.2229C10.7017 10.1025 9.80606 10.2493 9.01385 10.6435C8.22164 11.0378 7.5706 11.6607 7.14781 12.4291C6.72501 13.1974 6.55062 14.0745 6.64794 14.9431C6.74526 15.8116 7.10967 16.6302 7.69242 17.2894C8.27517 17.9485 9.04851 18.4168 9.90897 18.6316C10.7694 18.8464 11.6759 18.7975 12.5074 18.4914C13.3388 18.1852 14.0555 17.6365 14.5616 16.9186C15.0676 16.2007 15.3389 15.3478 15.3391 14.474V9.7572Z" fill="#A4A4A4"/>
</g>
<defs>
<clipPath id="clip0_154_4249">
<rect width="24.5217" height="24.5217" fill="white" transform="translate(0.652344)"/>
</clipPath>
</defs>
</svg>
