<svg width="26" height="25" viewBox="0 0 26 25" fill="none" xmlns="http://www.w3.org/2000/svg">
<g clip-path="url(#clip0_154_4251)">
<path fill-rule="evenodd" clip-rule="evenodd" d="M12.9992 0C19.8107 0 25.26 5.44928 25.26 12.2609C25.26 19.0725 19.8107 24.5217 12.9992 24.5217C6.18756 24.5217 0.738281 19.0725 0.738281 12.2609C0.738281 5.44928 6.18756 0 12.9992 0ZM9.86582 4.76812H16.2687C18.7209 4.76812 20.6281 6.67536 20.6281 8.9913V15.3942C20.6281 17.7101 18.7209 19.6174 16.2687 19.6174H9.86582C7.41364 19.6174 5.5064 17.7101 5.5064 15.3942V9.12754C5.5064 6.67536 7.41364 4.76812 9.86582 4.76812ZM12.9992 8.44638C15.1789 8.44638 16.9499 10.2174 16.9499 12.3971C16.9499 14.5768 15.1789 16.3478 12.9992 16.3478C10.8194 16.3478 8.91219 14.5768 8.91219 12.3971C8.91219 10.2174 10.6832 8.44638 12.9992 8.44638ZM12.9992 10.0812C14.2252 10.0812 15.3151 11.171 15.3151 12.3971C15.3151 13.6232 14.2252 14.713 12.9992 14.713C11.7731 14.713 10.6832 13.6232 10.6832 12.3971C10.6832 11.171 11.6368 10.0812 12.9992 10.0812ZM16.8136 7.76522C17.2223 7.76522 17.631 8.03768 17.631 8.58261C17.631 8.9913 17.3586 9.4 16.8136 9.4C16.4049 9.4 15.9963 9.12754 15.9963 8.58261C15.9963 8.03768 16.4049 7.76522 16.8136 7.76522ZM10.547 6.4029H15.5876C17.4948 6.4029 18.9934 7.90145 18.9934 9.8087V14.8493C18.9934 16.7565 17.4948 18.2551 15.5876 18.2551H10.547C8.63973 18.2551 7.14118 16.7565 7.14118 14.8493V9.8087C7.00495 7.90145 8.63973 6.4029 10.547 6.4029Z" fill="#A4A4A4"/>
</g>
<defs>
<clipPath id="clip0_154_4251">
<rect width="24.5217" height="24.5217" fill="white" transform="translate(0.738281)"/>
</clipPath>
</defs>
</svg>
