<svg width="26" height="25" viewBox="0 0 26 25" fill="none" xmlns="http://www.w3.org/2000/svg">
<g clip-path="url(#clip0_154_4255)">
<path fill-rule="evenodd" clip-rule="evenodd" d="M25.4348 12.2609C25.4348 19.0324 19.9454 24.5217 13.174 24.5217C6.40246 24.5217 0.913086 19.0324 0.913086 12.2609C0.913086 5.48937 6.40246 0 13.174 0C19.9454 0 25.4348 5.48937 25.4348 12.2609ZM11.4796 12.9933L5.6191 5.15735H10.136L13.978 10.2945L18.733 5.15735H20.0604L14.5711 11.0877L20.7615 19.3643H16.2446L12.0729 13.7863L6.90956 19.3643H5.58217L11.4796 12.9933ZM9.64612 6.13499H7.57109L16.7343 18.3867H18.8092L9.64612 6.13499Z" fill="#A4A4A4"/>
</g>
<defs>
<clipPath id="clip0_154_4255">
<rect width="24.5217" height="24.5217" fill="white" transform="translate(0.913086)"/>
</clipPath>
</defs>
</svg>
