<svg width="26" height="25" viewBox="0 0 26 25" fill="none" xmlns="http://www.w3.org/2000/svg">
<g clip-path="url(#clip0_154_4253)">
<path d="M25.3479 12.2609C25.3479 19.0452 19.8714 24.5217 13.087 24.5217C6.30269 24.5217 0.826172 19.0452 0.826172 12.2609C0.826172 5.47652 6.30269 0 13.087 0C19.8714 0 25.3479 5.47652 25.3479 12.2609ZM20.7705 12.2609C20.7705 6.62087 20.7705 6.62087 13.087 6.62087C5.40356 6.62087 5.40356 6.62087 5.40356 12.2609C5.40356 17.9009 5.40356 17.9009 13.087 17.9009C20.7705 17.9009 20.7705 17.9009 20.7705 12.2609ZM11.0436 9.23652L16.1931 12.3426L11.0436 15.4487V9.23652Z" fill="#A4A4A4"/>
</g>
<defs>
<clipPath id="clip0_154_4253">
<rect width="24.5217" height="24.5217" fill="white" transform="translate(0.826172)"/>
</clipPath>
</defs>
</svg>
