<svg width="25" height="25" viewBox="0 0 25 25" fill="none" xmlns="http://www.w3.org/2000/svg">
<g clip-path="url(#clip0_154_4245)">
<path d="M12.7394 24.5217C11.5133 24.5217 10.369 24.3583 9.2246 24.0313C9.71504 23.2957 10.2055 22.3965 10.4507 21.4157C10.6142 20.8435 11.2681 18.0643 11.2681 18.0643C11.6768 18.8817 12.9029 19.6174 14.2924 19.6174C18.2159 19.6174 20.9133 16.0209 20.9133 11.1983C20.9133 7.60174 17.8072 4.1687 13.1481 4.1687C7.3446 4.08696 4.48373 8.25565 4.48373 11.7704C4.48373 13.8957 5.30112 15.7757 7.01765 16.4296C7.26286 16.5113 7.58982 16.4296 7.67156 16.1026C7.7533 15.9391 7.83504 15.367 7.91678 15.1217C7.99852 14.7948 7.91678 14.713 7.7533 14.4678C7.26286 13.8957 6.93591 13.16 6.93591 12.0157C6.93591 8.90956 9.2246 6.13043 12.9846 6.13043C16.2542 6.13043 18.0524 8.17391 18.0524 10.8713C18.0524 14.3861 16.4994 17.4104 14.129 17.4104C12.8211 17.4104 11.922 16.3478 12.1672 15.04C12.5759 13.487 13.2298 11.7704 13.2298 10.7078C13.2298 9.72696 12.6576 8.82783 11.595 8.82783C10.2872 8.82783 9.2246 10.2174 9.2246 12.0157C9.2246 13.16 9.6333 13.9774 9.6333 13.9774C9.6333 13.9774 8.24373 19.6174 8.08026 20.68C7.83504 21.5791 7.7533 22.6417 7.83504 23.5409C3.50286 21.5791 0.478516 17.247 0.478516 12.2609C0.478516 5.47652 5.95504 0 12.7394 0C19.5237 0 25.0003 5.47652 25.0003 12.2609C25.0003 19.0452 19.5237 24.5217 12.7394 24.5217Z" fill="#A4A4A4"/>
</g>
<defs>
<clipPath id="clip0_154_4245">
<rect width="24.5217" height="24.5217" fill="white" transform="translate(0.478516)"/>
</clipPath>
</defs>
</svg>
