<svg width="31" height="31" viewBox="0 0 31 31" fill="none" xmlns="http://www.w3.org/2000/svg">
<g clip-path="url(#clip0_154_3973)">
<path d="M23.7344 0H7.26562C3.25293 0 0 3.25293 0 7.26562V23.7344C0 27.7471 3.25293 31 7.26562 31H23.7344C27.7471 31 31 27.7471 31 23.7344V7.26562C31 3.25293 27.7471 0 23.7344 0Z" fill="white"/>
<path d="M23.7344 0H7.26562C3.25293 0 0 3.25293 0 7.26562V23.7344C0 27.7471 3.25293 31 7.26562 31H23.7344C27.7471 31 31 27.7471 31 23.7344V7.26562C31 3.25293 27.7471 0 23.7344 0Z" fill="#1D9BF0"/>
<path d="M24.1669 11.0693C24.1802 11.2615 24.1802 11.4536 24.1802 11.6476C24.1802 17.5567 19.6819 24.3716 11.4563 24.3716V24.3679C9.02635 24.3714 6.64672 23.6755 4.60156 22.3632C4.95508 22.4056 5.30988 22.4271 5.66598 22.4278C7.68001 22.4294 9.63612 21.7539 11.2199 20.5098C10.2868 20.4921 9.38248 20.1832 8.63342 19.6265C7.88437 19.0697 7.328 18.2928 7.04209 17.4043C7.71207 17.5335 8.40277 17.5072 9.06096 17.3273C6.97476 16.9058 5.4738 15.0728 5.4738 12.9439V12.8873C6.09572 13.2337 6.79176 13.4257 7.50333 13.447C5.53847 12.1337 4.93275 9.51966 6.11923 7.47584C7.24185 8.85747 8.64261 9.98746 10.2305 10.7924C11.8183 11.5973 13.5578 12.0591 15.3358 12.1479C15.1585 11.3848 15.1847 10.5885 15.4117 9.83875C15.6388 9.08896 16.0587 8.41191 16.6294 7.87533C18.4306 6.18219 21.2633 6.26902 22.9565 8.0692C23.9579 7.87149 24.9183 7.50435 25.7962 6.98359C25.4624 8.01903 24.7638 8.89794 23.8304 9.45681C24.7169 9.35227 25.5826 9.11498 26.3984 8.75289C25.7983 9.65169 25.0427 10.436 24.1669 11.0693Z" fill="white"/>
</g>
<defs>
<clipPath id="clip0_154_3973">
<rect width="31" height="31" fill="white"/>
</clipPath>
</defs>
</svg>
