<svg width="170" height="48" viewBox="0 0 170 48" fill="none" xmlns="http://www.w3.org/2000/svg">
<path d="M69.9761 30.3369C68.6245 29.5746 67.508 28.4408 66.7833 27.0726C65.9998 25.6065 65.608 23.9646 65.6472 22.3031C65.608 20.6221 66.0194 18.941 66.8421 17.4554C67.5864 16.0872 68.7225 14.9534 70.074 14.1911C71.4648 13.4092 73.0318 13.0183 74.638 13.0378C75.8328 13.0183 77.0277 13.1746 78.1638 13.5265C79.1823 13.8588 80.1617 14.3279 81.0628 14.8948C81.2195 14.973 81.337 15.1098 81.4349 15.2466C81.5329 15.4226 81.5916 15.618 81.5916 15.8135C81.6112 16.3804 81.1411 16.8495 80.5731 16.869C80.5535 16.869 80.5339 16.869 80.4947 16.869C80.2988 16.869 80.1226 16.8299 79.9463 16.7322C79.1823 16.2631 78.3597 15.9112 77.5174 15.6376C76.6555 15.3835 75.7741 15.2662 74.8926 15.2857C73.6586 15.2662 72.4442 15.5594 71.3668 16.1067C70.3287 16.654 69.4668 17.4945 68.8988 18.511C68.3111 19.5665 68.0173 20.8175 68.0173 22.2835C67.9977 23.5346 68.2916 24.766 68.8596 25.8802C69.4081 26.9357 70.2503 27.7958 71.2885 28.3822C72.3462 28.9882 73.5998 29.3009 75.0493 29.3009C76.6163 29.3009 78.1638 28.9295 79.5545 28.1672V23.4955H75.304C74.7163 23.4759 74.2658 22.9677 74.2854 22.4008C74.305 21.8535 74.7555 21.4039 75.304 21.3844H80.3968C81.0823 21.3844 81.6308 21.9317 81.6308 22.6158C81.6308 22.6158 81.6308 22.6158 81.6308 22.6354V28.4799C81.6308 28.8122 81.5329 29.1641 81.3566 29.4377C81.1803 29.7114 80.9452 29.9264 80.6514 30.0632C78.8298 31.0015 76.7926 31.4902 74.7359 31.5097C73.0514 31.5293 71.4256 31.1383 69.9761 30.3369Z" fill="white"/>
<path d="M86.1357 31.0405C85.9203 30.8255 85.8027 30.5323 85.8027 30.2195V19.1755C85.8027 18.8627 85.9203 18.5695 86.1357 18.335C86.3512 18.1004 86.645 17.9831 86.9584 17.9831C87.6048 17.9831 88.1337 18.5109 88.1533 19.1755V20.2897C89.3481 18.6868 90.6997 17.8658 92.1883 17.8658H92.3255C92.6389 17.8658 92.9327 17.9831 93.1286 18.1981C93.344 18.4132 93.4615 18.7064 93.442 19.0191C93.4615 19.3123 93.3244 19.6055 93.109 19.8205C92.8739 20.0356 92.5605 20.1333 92.2471 20.1333H92.11C91.3069 20.1333 90.5234 20.3288 89.8378 20.7393C89.1327 21.1497 88.545 21.7166 88.1141 22.4007V30.2391C88.1141 30.5518 87.9966 30.845 87.7615 31.0601C87.546 31.2751 87.2326 31.3924 86.9192 31.3924C86.645 31.3728 86.3512 31.2555 86.1357 31.0405Z" fill="white"/>
<path d="M97.614 30.6497C96.615 30.0828 95.8119 29.2618 95.3027 28.2454C94.7542 27.1312 94.4604 25.9193 94.4996 24.6683C94.48 23.4368 94.7542 22.2054 95.3027 21.0912C95.8119 20.0747 96.615 19.2342 97.614 18.6869C99.7883 17.5532 102.374 17.5532 104.548 18.6869C105.547 19.2538 106.35 20.0747 106.879 21.0912C107.447 22.1858 107.721 23.4173 107.702 24.6683C107.721 25.8997 107.447 27.1312 106.879 28.2454C106.35 29.2618 105.547 30.1023 104.548 30.6497C102.374 31.7834 99.7883 31.7834 97.614 30.6497ZM103.118 28.8709C103.784 28.519 104.352 27.9913 104.724 27.3267C105.136 26.623 105.351 25.7238 105.351 24.6487C105.351 23.5736 105.136 22.6745 104.724 21.9903C104.352 21.3257 103.804 20.798 103.118 20.4657C102.491 20.1529 101.786 19.9966 101.101 19.9966C100.395 19.9966 99.6903 20.1529 99.0439 20.4657C98.3779 20.798 97.8295 21.3453 97.4573 21.9903C97.046 22.694 96.8305 23.5736 96.8305 24.6487C96.8305 25.7043 97.046 26.6034 97.4573 27.3267C97.8295 27.9913 98.3779 28.519 99.0439 28.8709C99.6707 29.2032 100.376 29.3596 101.101 29.3596C101.806 29.3596 102.491 29.2032 103.118 28.8709Z" fill="white"/>
<path d="M113.794 31.0602C113.519 30.8647 113.324 30.5911 113.226 30.2783L109.563 19.5666C109.524 19.4298 109.484 19.2734 109.484 19.1365C109.484 18.511 109.994 17.9833 110.62 17.9833H110.64C110.875 17.9833 111.11 18.0419 111.286 18.1787C111.463 18.296 111.6 18.472 111.678 18.687L114.695 28.5973L117.692 18.9215C117.907 18.2178 118.651 17.8269 119.357 18.0615C119.768 18.1983 120.101 18.511 120.218 18.9215L123.215 28.5973L126.271 18.687C126.349 18.472 126.487 18.296 126.663 18.1787C126.859 18.0419 127.094 17.9833 127.329 17.9833C127.956 17.9833 128.484 18.4915 128.484 19.117V19.1365C128.484 19.2929 128.465 19.4298 128.406 19.5666L124.743 30.2979C124.645 30.6106 124.449 30.8843 124.175 31.0798C123.627 31.4902 122.863 31.4902 122.314 31.0798C122.04 30.8843 121.844 30.5911 121.727 30.2783L118.984 21.7558L116.242 30.2783C116.125 30.5911 115.929 30.8647 115.655 31.0798C115.106 31.4902 114.342 31.4902 113.794 31.0602Z" fill="white"/>
<path d="M132.559 28.1086V20.1334H130.738C130.601 20.1334 130.483 20.0943 130.385 19.9966C130.287 19.8988 130.248 19.7815 130.248 19.6447C130.248 19.4688 130.346 19.3124 130.483 19.2147L133.989 15.794C134.107 15.6571 134.264 15.5789 134.42 15.5594C134.557 15.5594 134.675 15.618 134.773 15.7158C134.871 15.8135 134.91 15.9503 134.91 16.0676V18.12H137.829C138.397 18.12 138.847 18.5696 138.827 19.1365C138.827 19.3906 138.73 19.6447 138.553 19.8402C138.357 20.0356 138.103 20.1529 137.829 20.1334H134.91V27.9131C134.91 28.5777 135.067 29.0077 135.38 29.1836C135.752 29.3791 136.164 29.4768 136.575 29.4573C136.927 29.4573 137.28 29.3987 137.613 29.3009L137.829 29.2423C137.926 29.2227 138.024 29.2227 138.122 29.2227C138.357 29.2227 138.592 29.3205 138.769 29.4964C138.945 29.6723 139.063 29.9069 139.043 30.161C139.043 30.5519 138.808 30.9038 138.455 31.0601C137.789 31.3729 137.045 31.5293 136.32 31.5293C133.813 31.5097 132.559 30.376 132.559 28.1086Z" fill="white"/>
<path d="M141.825 15.0511C141.571 14.8166 141.434 14.4647 141.434 14.1324V14.0347C141.434 13.3114 142.021 12.725 142.746 12.725H142.903C143.627 12.725 144.215 13.3114 144.215 14.0347V14.1324C144.215 14.8557 143.627 15.4421 142.903 15.4616H142.746C142.393 15.4421 142.06 15.3052 141.825 15.0511ZM141.982 31.0406C141.767 30.8255 141.649 30.5323 141.649 30.2196V19.1755C141.649 18.8628 141.767 18.5696 141.982 18.335C142.198 18.1005 142.491 17.9832 142.805 17.9832C143.432 17.9636 143.98 18.4523 144 19.0974C144 19.1169 144 19.1364 144 19.1755V30.2196C144 30.5323 143.882 30.8255 143.647 31.0406C143.432 31.2556 143.118 31.3729 142.805 31.3729C142.491 31.3924 142.198 31.2556 141.982 31.0406Z" fill="white"/>
<path d="M149.385 31.0406C149.17 30.8256 149.052 30.5324 149.052 30.2196V20.1334H147.524C146.976 20.1334 146.525 19.6838 146.525 19.1365C146.525 18.8628 146.623 18.6087 146.819 18.4132C147.015 18.2373 147.27 18.12 147.524 18.1396H149.052V16.6149C149.052 15.5789 149.228 14.7384 149.601 14.0738C149.934 13.4678 150.423 12.9596 151.05 12.6273C151.638 12.3341 152.265 12.1777 152.911 12.1777C153.695 12.1777 154.458 12.3537 155.164 12.7055C155.34 12.7837 155.477 12.9205 155.595 13.0769C155.712 13.2333 155.771 13.4092 155.771 13.6047C155.771 13.8588 155.673 14.1129 155.477 14.2888C155.301 14.4843 155.066 14.582 154.811 14.582C154.615 14.582 154.419 14.5625 154.223 14.5038C153.812 14.4452 153.577 14.4256 153.518 14.4256C152.813 14.4256 152.284 14.582 151.932 14.9143C151.579 15.2466 151.403 15.833 151.403 16.6931V18.1005H154.635C155.203 18.1005 155.653 18.5501 155.634 19.1169C155.634 19.371 155.536 19.6251 155.359 19.8206C155.164 20.0161 154.909 20.1334 154.635 20.1138H151.403V30.2196C151.403 30.5324 151.285 30.8256 151.05 31.0406C150.835 31.2556 150.521 31.3729 150.208 31.3729C149.894 31.3924 149.601 31.2556 149.385 31.0406Z" fill="white"/>
<path d="M160.08 36.9634C159.865 36.7484 159.767 36.4552 159.767 36.162C159.767 36.0251 159.787 35.8883 159.845 35.7515L161.53 31.4511L156.672 19.6643C156.613 19.5079 156.574 19.3516 156.574 19.1756C156.574 18.8629 156.692 18.5697 156.907 18.3351C157.123 18.1201 157.416 17.9833 157.73 17.9833C157.965 17.9833 158.2 18.0615 158.396 18.1983C158.592 18.3156 158.729 18.511 158.827 18.7065L162.803 28.5386L166.858 18.7652C167.073 18.2374 167.445 17.9833 167.935 17.9833C168.249 17.9833 168.542 18.1006 168.758 18.3351C168.973 18.5501 169.091 18.8629 169.091 19.1756C169.091 19.332 169.071 19.4688 169.012 19.6057L161.961 36.4943C161.726 37.022 161.354 37.2957 160.884 37.2957C160.57 37.2957 160.276 37.1784 160.08 36.9634Z" fill="white"/>
<path d="M24.9639 0C11.6834 0 0.910156 10.7508 0.910156 24.0037C0.910156 30.0437 3.18233 35.8492 7.29576 40.2863L12.3886 35.2041L13.7401 36.5529L15.5422 34.7545H30.7227C28.6856 35.9274 26.3546 36.5529 24.0041 36.5529H13.7205L8.62773 41.6351C18.3824 50.6267 33.6021 50.0207 42.6125 40.2668C51.6228 30.5128 51.0156 15.3444 41.2413 6.35277C36.8145 2.26745 30.9969 0 24.9639 0ZM12.3886 35.2041V24.981C12.4082 17.5141 18.4608 11.4741 25.9433 11.4545H36.1877L12.3886 35.2041ZM33.1516 32.9562H17.3247L19.1268 31.1579H34.797C34.3073 31.8225 33.7588 32.4089 33.1516 32.9562ZM35.933 29.3791H20.9092L22.7113 27.5808H36.7361C36.5207 28.2063 36.2464 28.7927 35.933 29.3791ZM37.2454 25.7825H24.5134L26.4722 23.8278H37.5001C37.4609 24.4924 37.3825 25.1374 37.2454 25.7825ZM37.5392 22.0099H28.2938L30.1155 20.192H37.5392V22.0099ZM37.5392 18.3546H31.9567L33.5042 16.8104H37.5392V18.3546ZM37.5392 15.0316H35.2866L37.5392 12.7837V15.0316Z" fill="white"/>
</svg>
