<svg width="164" height="56" viewBox="0 0 164 56" fill="none" xmlns="http://www.w3.org/2000/svg">
<path d="M78.8316 23.0625V29.9812C77.9697 30.6102 76.9913 31.0994 75.9663 31.4255C74.8947 31.7516 73.7765 31.9147 72.6583 31.9147C71.3305 31.938 70.026 31.705 68.768 31.2391C67.6731 30.8198 66.6481 30.1908 65.8095 29.3755C64.9942 28.5602 64.3419 27.5818 63.9226 26.5102C63.48 25.3454 63.247 24.0875 63.2703 22.8295C63.247 21.5716 63.4567 20.3136 63.8993 19.1255C64.2953 18.0539 64.9243 17.0755 65.7163 16.2602C66.5317 15.4449 67.5101 14.8159 68.5817 14.3966C69.793 13.9307 71.0743 13.721 72.3788 13.7443C73.0311 13.7443 73.7066 13.7909 74.3589 13.9074C74.9413 14.0005 75.5004 14.1636 76.0362 14.3733C76.5487 14.5596 77.0146 14.7926 77.4805 15.0721C77.9231 15.3517 78.3191 15.6545 78.7151 16.004L77.9697 17.192C77.8765 17.3784 77.7134 17.4949 77.5038 17.5414C77.2941 17.588 77.0612 17.5414 76.8981 17.4017C76.6885 17.2852 76.4555 17.1221 76.1992 16.9591C75.8964 16.7727 75.5936 16.6096 75.2674 16.4932C74.8714 16.3301 74.4521 16.2136 74.0095 16.1437C73.4504 16.0272 72.8913 15.9807 72.3089 16.004C71.4004 15.9807 70.5152 16.1437 69.6765 16.4699C68.9078 16.7727 68.2322 17.2386 67.6731 17.8443C67.114 18.4733 66.6714 19.1954 66.3919 19.9875C66.089 20.896 65.926 21.8511 65.9493 22.8062C65.926 23.8079 66.089 24.7863 66.4152 25.7181C66.6947 26.5335 67.1606 27.2789 67.743 27.9079C68.3254 28.5136 69.0476 28.9795 69.8396 29.2823C70.7248 29.6085 71.6566 29.7715 72.5885 29.7482C72.9612 29.7482 73.3339 29.7249 73.7066 29.6784C74.0328 29.6318 74.3589 29.5619 74.685 29.492C74.9879 29.4221 75.2907 29.3056 75.5936 29.1891C75.8964 29.0727 76.1759 28.9329 76.4555 28.7698V25.0426H73.8231C73.6833 25.0426 73.5203 24.996 73.4271 24.9028C73.3339 24.8096 73.264 24.6698 73.264 24.5301V23.0625H78.8316Z" fill="white"/>
<path d="M87.0783 18.9392C87.9402 18.9159 88.7789 19.079 89.5709 19.3818C90.2931 19.6614 90.9453 20.104 91.4811 20.6864C92.0169 21.2687 92.4362 21.9676 92.6925 22.7131C93.2516 24.4602 93.2516 26.3238 92.6925 28.071C92.4362 28.8165 92.0169 29.5153 91.4811 30.121C90.9453 30.6801 90.2931 31.1227 89.5709 31.4022C87.9635 32.0079 86.1698 32.0079 84.5624 31.4022C83.8402 31.1227 83.188 30.6801 82.6522 30.121C82.1164 29.5386 81.6971 28.8398 81.4408 28.071C80.8817 26.3238 80.8817 24.4602 81.4408 22.7131C81.6971 21.9676 82.1164 21.2687 82.6522 20.6864C83.188 20.1273 83.8402 19.6847 84.5624 19.3818C85.3777 19.079 86.2164 18.9392 87.0783 18.9392ZM87.0783 29.9812C88.2663 29.9812 89.1516 29.5852 89.734 28.7932C90.3163 28.0011 90.6192 26.8596 90.6192 25.4153C90.6192 23.971 90.3163 22.8295 89.734 22.0375C89.1516 21.2455 88.2663 20.8261 87.0783 20.8261C85.8669 20.8261 84.9817 21.2222 84.3993 22.0375C83.8169 22.8528 83.5141 23.971 83.5141 25.4153C83.5141 26.8596 83.8169 27.9778 84.3993 28.7932C84.9817 29.5852 85.8669 29.9812 87.0783 29.9812Z" fill="white"/>
<path d="M98.2596 13.4647V31.705H95.8369V13.4647H98.2596Z" fill="white"/>
<path d="M112.214 13.4647V31.705H110.746C110.443 31.7283 110.164 31.5187 110.117 31.2158L109.908 29.7715C109.395 30.3772 108.789 30.8897 108.091 31.2857C107.368 31.6817 106.553 31.8681 105.738 31.8681C105.062 31.8681 104.41 31.7283 103.781 31.4488C103.199 31.1692 102.686 30.7499 102.29 30.2141C101.847 29.6084 101.521 28.9329 101.335 28.2107C101.102 27.3022 100.985 26.3937 101.009 25.4619C101.009 24.5766 101.125 23.7147 101.382 22.8761C101.614 22.1306 101.964 21.4085 102.453 20.8028C103.408 19.5914 104.876 18.8925 106.413 18.9158C107.695 18.8693 108.929 19.3818 109.768 20.3369V13.4647H112.214ZM109.791 22.1772C109.465 21.7113 109.022 21.3386 108.51 21.0823C108.021 20.8727 107.508 20.7562 106.972 20.7795C105.878 20.7795 105.016 21.1755 104.41 21.9675C103.804 22.7596 103.501 23.9244 103.501 25.4386C103.501 26.1141 103.548 26.813 103.711 27.4886C103.804 27.9778 104.014 28.4437 104.293 28.863C104.526 29.2124 104.876 29.492 105.249 29.655C105.645 29.8181 106.087 29.9113 106.53 29.9113C107.159 29.9346 107.788 29.7715 108.347 29.4454C108.906 29.0959 109.395 28.6533 109.791 28.1175V22.1772Z" fill="white"/>
<path d="M124.957 16.0972V22.0375H132.062V24.1807H124.957V31.7051H122.324V13.954H133.32V16.0972H124.957Z" fill="white"/>
<path d="M138.7 15.2585C138.7 15.4682 138.654 15.7011 138.56 15.8875C138.467 16.0971 138.351 16.2602 138.188 16.4233C137.885 16.7261 137.442 16.9125 137 16.9125C136.79 16.9125 136.557 16.8659 136.371 16.7727C136.184 16.6795 135.998 16.563 135.835 16.4233C135.672 16.2602 135.555 16.0971 135.485 15.8875C135.392 15.6778 135.346 15.4682 135.346 15.2585C135.346 15.0256 135.392 14.8159 135.485 14.6062C135.649 14.2102 135.975 13.8841 136.371 13.721C136.58 13.6278 136.79 13.5812 137 13.5812C137.442 13.5812 137.862 13.7676 138.188 14.0704C138.351 14.2335 138.467 14.3966 138.56 14.6062C138.677 14.8159 138.724 15.0256 138.7 15.2585ZM138.234 19.1488V31.7051H135.835V19.1488H138.234Z" fill="white"/>
<path d="M149.16 21.292C149.113 21.3852 149.043 21.4551 148.95 21.525C148.857 21.5715 148.764 21.5948 148.671 21.5948C148.508 21.5948 148.368 21.5483 148.228 21.4551C148.065 21.3619 147.879 21.2687 147.646 21.1522C147.389 21.0358 147.133 20.9426 146.854 20.8494C146.504 20.7562 146.132 20.7096 145.759 20.7096C145.433 20.7096 145.13 20.7562 144.827 20.8494C144.571 20.9193 144.314 21.0358 144.105 21.1988C143.918 21.3386 143.755 21.525 143.639 21.7346C143.522 21.9443 143.476 22.1772 143.476 22.4102C143.476 22.6897 143.569 22.9693 143.755 23.1789C143.965 23.4119 144.221 23.575 144.478 23.7147C144.804 23.8778 145.153 24.0176 145.503 24.1107L146.667 24.4835C147.063 24.6232 147.459 24.763 147.832 24.9261C148.205 25.0892 148.554 25.2988 148.857 25.5551C149.16 25.8113 149.416 26.1142 149.579 26.4636C149.766 26.8596 149.882 27.3022 149.859 27.7681C149.859 28.3272 149.766 28.8863 149.533 29.3988C149.323 29.888 148.997 30.3306 148.601 30.6801C148.158 31.0528 147.646 31.3556 147.087 31.542C146.411 31.7516 145.736 31.8681 145.037 31.8448C144.221 31.8448 143.406 31.705 142.637 31.4022C141.962 31.146 141.333 30.7732 140.797 30.3073L141.356 29.3755C141.426 29.259 141.496 29.1658 141.612 29.1193C141.729 29.0494 141.868 29.0261 142.008 29.0261C142.195 29.0261 142.358 29.096 142.497 29.1891C142.661 29.3056 142.87 29.4221 143.08 29.5619C143.336 29.7016 143.616 29.8414 143.918 29.9346C144.314 30.0511 144.734 30.121 145.153 30.0977C145.526 30.0977 145.875 30.0511 146.225 29.9346C146.504 29.8414 146.76 29.7016 146.993 29.5153C147.18 29.3522 147.343 29.1426 147.436 28.9096C147.529 28.6766 147.576 28.4204 147.576 28.1874C147.576 27.8846 147.483 27.6051 147.296 27.3721C147.087 27.1391 146.854 26.9528 146.574 26.813C146.248 26.6499 145.899 26.5102 145.549 26.3937C145.153 26.2772 144.757 26.1607 144.361 26.021C143.965 25.8812 143.569 25.7414 143.173 25.5551C142.8 25.392 142.451 25.159 142.148 24.9028C141.845 24.6232 141.589 24.2971 141.426 23.9477C141.239 23.5051 141.146 23.0392 141.17 22.5733C141.17 22.084 141.263 21.6181 141.472 21.1755C141.682 20.7329 141.985 20.3369 142.358 20.0108C142.777 19.6613 143.266 19.3818 143.779 19.1954C144.408 18.9858 145.06 18.8926 145.712 18.8926C146.481 18.8926 147.25 19.0091 147.972 19.2886C148.601 19.5216 149.207 19.8943 149.696 20.3835L149.16 21.292Z" fill="white"/>
<path d="M154.891 20.7329C155.403 20.2204 155.985 19.7778 156.638 19.4283C157.313 19.0789 158.082 18.9158 158.851 18.9391C159.48 18.9158 160.109 19.0556 160.668 19.2886C161.18 19.4982 161.623 19.8477 161.972 20.267C162.345 20.7096 162.625 21.2221 162.788 21.7579C162.974 22.3869 163.067 23.0391 163.067 23.6914V31.6817H160.644V23.6914C160.644 22.7829 160.435 22.1073 160.015 21.5948C159.596 21.0823 158.967 20.8494 158.129 20.8494C157.523 20.8494 156.917 20.9891 156.381 21.292C155.822 21.5948 155.31 22.0141 154.867 22.48V31.6817H152.468V13.4647H154.891V20.7329Z" fill="white"/>
<path d="M64.0624 42.4909V38.2744L63.3403 38.2511C63.2704 38.2511 63.2471 38.2278 63.2471 38.1812V38.088H64.0391V37.6221C64.0391 37.3659 64.0857 37.1096 64.1556 36.8534C64.2255 36.6437 64.342 36.4573 64.505 36.2943C64.6681 36.1312 64.8312 36.0147 65.0408 35.9448C65.2738 35.875 65.5067 35.8284 65.7397 35.8284C65.8329 35.8284 65.926 35.8284 66.0425 35.8517C66.1357 35.875 66.2289 35.8983 66.2988 35.9216L66.2755 36.038C66.2755 36.0613 66.2522 36.0613 66.2522 36.0613C66.2289 36.0613 66.2056 36.0613 66.159 36.0613L66.0192 36.038C65.9493 36.038 65.8562 36.038 65.7863 36.038C65.5766 36.038 65.3902 36.0613 65.1806 36.1079C64.9942 36.1778 64.8312 36.271 64.6914 36.4108C64.5516 36.5505 64.4584 36.7136 64.3885 36.9C64.3187 37.1329 64.2721 37.3659 64.2721 37.5988V38.0647H66.9044V42.4676H66.6482V38.2511H64.2488V42.4676H64.0624V42.4909Z" fill="white"/>
<path d="M72.9139 38.3909C72.8906 38.4142 72.8673 38.4375 72.844 38.4375C72.7974 38.4375 72.7508 38.4142 72.7275 38.3676C72.6576 38.321 72.5878 38.2744 72.5179 38.2278C72.4014 38.1812 72.3082 38.1346 72.1917 38.0881C72.0287 38.0415 71.8656 38.0182 71.7025 38.0182C71.5395 38.0182 71.3531 38.0415 71.2133 38.1114C71.0736 38.1579 70.9338 38.2278 70.8173 38.321C70.7008 38.4142 70.6309 38.5074 70.5611 38.6471C70.4912 38.7636 70.4679 38.9034 70.4679 39.0199C70.4679 39.1596 70.5145 39.2994 70.5844 39.4159C70.6542 39.5324 70.7707 39.6256 70.8872 39.6721C71.027 39.742 71.1667 39.8119 71.3065 39.8585L71.7957 40.0216C71.9588 40.0682 72.1219 40.1148 72.2849 40.1846C72.4247 40.2312 72.5645 40.3011 72.7042 40.3943C72.8207 40.4875 72.9372 40.5807 73.0071 40.7204C73.077 40.8602 73.1236 41.0233 73.1236 41.1863C73.1236 41.3727 73.1003 41.5591 73.0304 41.7221C72.9605 41.8852 72.8673 42.0483 72.7275 42.1648C72.5878 42.3045 72.4247 42.3977 72.2383 42.4676C72.0287 42.5375 71.819 42.5841 71.5861 42.5841C71.4463 42.5841 71.2832 42.5608 71.1434 42.5375C71.027 42.5142 70.8872 42.4676 70.7707 42.421C70.6542 42.3744 70.5611 42.3045 70.4446 42.2346C70.3514 42.1648 70.2349 42.0949 70.165 42.0017L70.2349 41.9318C70.2349 41.9085 70.2582 41.9085 70.2582 41.9085C70.2815 41.9085 70.3048 41.8852 70.3048 41.8852C70.3514 41.8852 70.398 41.9318 70.4446 41.9551C70.5145 42.025 70.5844 42.0716 70.6775 42.1182C70.794 42.188 70.9105 42.2579 71.0503 42.2812C71.2366 42.3278 71.423 42.3511 71.6094 42.3511C71.7957 42.3511 71.9821 42.3278 72.1684 42.2579C72.3315 42.2113 72.448 42.1182 72.5878 42.0017C72.7042 41.9085 72.7741 41.7687 72.844 41.629C72.8906 41.4892 72.9372 41.3261 72.9372 41.1863C72.9372 41.0466 72.9139 40.8835 72.8207 40.767C72.7508 40.6506 72.6344 40.5574 72.5179 40.4875C72.3781 40.4176 72.2383 40.3477 72.0986 40.3011L71.6094 40.1613C71.4463 40.1148 71.2832 40.0682 71.1202 39.9983C70.9804 39.9517 70.8406 39.8818 70.7008 39.7886C70.5844 39.7187 70.4679 39.6023 70.398 39.4858C70.3281 39.346 70.2815 39.1829 70.2815 39.0199C70.2815 38.8568 70.3281 38.717 70.398 38.5773C70.4679 38.4375 70.5611 38.2977 70.7008 38.2045C70.8406 38.0881 71.0037 37.9949 71.1667 37.9483C71.3531 37.8784 71.5628 37.8551 71.7724 37.8551C72.0054 37.8551 72.2383 37.8784 72.4713 37.9716C72.6809 38.0415 72.8906 38.1812 73.0537 38.321L72.9139 38.3909Z" fill="white"/>
<path d="M76.5015 38.7869C76.7112 38.5074 76.9674 38.2744 77.2703 38.088C77.5731 37.925 77.8992 37.8318 78.2254 37.8318C78.4583 37.8318 78.668 37.8784 78.9009 37.9483C79.0873 38.0182 79.2504 38.1346 79.3668 38.2977C79.5066 38.4608 79.5998 38.6471 79.6464 38.8335C79.7163 39.0665 79.7396 39.3227 79.7396 39.5557V42.4909H79.5066V39.5789C79.5066 39.3693 79.4833 39.1363 79.4367 38.9267C79.3901 38.7403 79.3203 38.5772 79.2038 38.4375C79.0873 38.2977 78.9475 38.2045 78.7845 38.1346C78.5981 38.0647 78.4117 38.0182 78.2021 38.0415C77.8759 38.0415 77.5498 38.1346 77.2703 38.2977C76.9674 38.4841 76.7112 38.7403 76.5248 39.0199V42.4909H76.2686V35.7818H76.5248L76.5015 38.7869Z" fill="white"/>
<path d="M87.87 42.4909V38.2744L87.1479 38.2512C87.078 38.2512 87.0547 38.2279 87.0547 38.1813V38.0881H87.87V37.4358C87.87 37.2029 87.8933 36.9699 87.9632 36.7602C88.0098 36.5739 88.103 36.4108 88.2195 36.271C88.3359 36.1546 88.4757 36.0381 88.6388 35.9915C88.8018 35.9216 88.9882 35.8983 89.1746 35.8983C89.2678 35.8983 89.3609 35.8983 89.4541 35.9216C89.5473 35.9449 89.6172 35.9682 89.7104 35.9915L89.6871 36.0847C89.6871 36.108 89.6638 36.1313 89.6638 36.1313C89.6405 36.1313 89.5939 36.1313 89.5706 36.1313H89.4308C89.3609 36.1313 89.291 36.108 89.2212 36.108C89.0814 36.108 88.9183 36.1313 88.7786 36.1779C88.6388 36.2245 88.5223 36.2943 88.4291 36.4108C88.3126 36.5273 88.2428 36.6671 88.1962 36.8301C88.1263 37.0398 88.103 37.2494 88.103 37.4591V38.1114H89.6638V38.2977H88.103V42.5142L87.87 42.4909Z" fill="white"/>
<path d="M94.1361 37.855C94.4389 37.855 94.7185 37.9016 94.998 38.0181C95.2543 38.1346 95.4639 38.2977 95.627 38.5073C95.8133 38.717 95.9298 38.9732 96.023 39.2528C96.2094 39.8817 96.2094 40.5573 96.023 41.1863C95.9531 41.4658 95.8133 41.6988 95.627 41.9317C95.4639 42.1414 95.231 42.3045 94.998 42.3977C94.4389 42.6073 93.8332 42.6073 93.2741 42.3977C93.0179 42.3045 92.8082 42.1414 92.6452 41.9317C92.4588 41.7221 92.3423 41.4658 92.2491 41.1863C92.0628 40.5573 92.0628 39.8817 92.2491 39.2528C92.319 38.9732 92.4588 38.717 92.6452 38.5073C92.8082 38.2977 93.0412 38.1346 93.2741 38.0181C93.5537 37.9016 93.8332 37.8318 94.1361 37.855ZM94.1361 42.3511C94.4156 42.3511 94.6719 42.3045 94.9281 42.188C95.1378 42.0948 95.3474 41.9317 95.4872 41.7454C95.6503 41.5357 95.7668 41.3028 95.8366 41.0698C95.9065 40.7903 95.9531 40.4874 95.9531 40.1846C95.9531 39.8817 95.9298 39.5789 95.8366 39.2994C95.7668 39.0431 95.6503 38.8102 95.4872 38.6238C95.3474 38.4374 95.1378 38.2744 94.9281 38.1812C94.4389 37.9715 93.8798 37.9715 93.3673 38.1812C93.1577 38.2744 92.948 38.4374 92.8082 38.6238C92.6452 38.8335 92.5287 39.0664 92.4588 39.2994C92.3889 39.5789 92.3423 39.8817 92.3423 40.1846C92.3423 40.4874 92.3656 40.767 92.4588 41.0698C92.5287 41.3261 92.6452 41.5357 92.8082 41.7454C92.948 41.9317 93.1577 42.0948 93.3673 42.188C93.6003 42.3045 93.8565 42.3744 94.1361 42.3511Z" fill="white"/>
<path d="M101.125 37.855C101.428 37.855 101.708 37.9016 101.987 38.0181C102.244 38.1346 102.453 38.2977 102.616 38.5073C102.803 38.717 102.942 38.9732 103.012 39.2528C103.199 39.8817 103.199 40.5573 103.012 41.1863C102.942 41.4658 102.803 41.6988 102.616 41.9317C102.453 42.1414 102.22 42.3045 101.987 42.3977C101.428 42.6073 100.822 42.6073 100.263 42.3977C100.007 42.2812 99.7975 42.1414 99.6344 41.9317C99.4481 41.7221 99.3316 41.4658 99.2384 41.1863C99.052 40.5573 99.052 39.8817 99.2384 39.2528C99.3083 38.9732 99.4481 38.717 99.6344 38.5073C99.7975 38.2977 100.03 38.1346 100.263 38.0181C100.543 37.9016 100.822 37.8318 101.125 37.855ZM101.125 42.3511C101.405 42.3511 101.661 42.3045 101.917 42.188C102.127 42.0948 102.337 41.9317 102.476 41.7454C102.64 41.5357 102.756 41.3028 102.803 41.0698C102.872 40.7903 102.919 40.4874 102.919 40.1846C102.919 39.8817 102.896 39.5789 102.803 39.2994C102.733 39.0431 102.616 38.8102 102.476 38.6238C102.337 38.4374 102.127 38.2744 101.917 38.1812C101.428 37.9715 100.846 37.9715 100.357 38.1812C100.147 38.2744 99.9373 38.4374 99.7975 38.6238C99.6344 38.8335 99.5179 39.0664 99.4714 39.2994C99.4015 39.5789 99.3549 39.8817 99.3549 40.1846C99.3549 40.4874 99.3782 40.767 99.4714 41.0698C99.5412 41.3261 99.6577 41.5357 99.7975 41.7454C99.9373 41.9317 100.147 42.0948 100.357 42.188C100.59 42.3045 100.869 42.3744 101.125 42.3511Z" fill="white"/>
<path d="M109.814 35.7817V42.4908H109.698C109.651 42.4908 109.605 42.4675 109.605 42.4209V42.3976L109.581 41.5823C109.395 41.8618 109.139 42.0948 108.859 42.2811C108.58 42.4442 108.254 42.5374 107.927 42.5374C107.415 42.5607 106.926 42.351 106.576 41.955C106.273 41.559 106.11 40.9766 106.11 40.1845C106.11 39.8584 106.157 39.5556 106.227 39.2527C106.297 38.9732 106.436 38.7169 106.6 38.5073C106.763 38.2976 106.972 38.1113 107.229 37.9948C107.508 37.8783 107.788 37.8084 108.09 37.8084C108.393 37.8084 108.673 37.855 108.952 37.9948C109.209 38.1346 109.418 38.3209 109.581 38.5539V35.7584H109.814V35.7817ZM109.558 38.8567C109.395 38.6005 109.185 38.3908 108.929 38.2277C108.673 38.1113 108.417 38.0414 108.137 38.0414C107.858 38.0414 107.601 38.088 107.345 38.2044C107.135 38.3209 106.926 38.484 106.786 38.6703C106.623 38.88 106.53 39.113 106.46 39.3692C106.39 39.6488 106.343 39.9516 106.343 40.2311C106.343 40.9533 106.483 41.4891 106.763 41.8385C107.042 42.188 107.508 42.3976 107.951 42.3743C108.277 42.3743 108.58 42.2811 108.836 42.1181C109.115 41.9317 109.372 41.6755 109.558 41.3959V38.8567Z" fill="white"/>
<path d="M117.991 38.8102C118.2 38.5307 118.457 38.2977 118.76 38.1114C119.062 37.9483 119.388 37.8551 119.715 37.8551C119.948 37.8551 120.157 37.9017 120.39 37.9716C120.577 38.0415 120.74 38.1579 120.856 38.321C120.996 38.4841 121.089 38.6704 121.136 38.8568C121.206 39.0898 121.229 39.346 121.229 39.579V42.5142H120.996V39.579C120.996 39.3693 120.973 39.1364 120.926 38.9267C120.879 38.7403 120.81 38.5773 120.693 38.4375C120.577 38.2977 120.437 38.2045 120.274 38.1347C120.087 38.0648 119.901 38.0182 119.691 38.0415C119.365 38.0415 119.039 38.1346 118.76 38.2977C118.457 38.4841 118.2 38.7403 118.014 39.0199V42.4909H117.758V37.9017H117.874C117.944 37.9017 117.967 37.925 117.967 37.9949L117.991 38.8102Z" fill="white"/>
<path d="M128.101 37.925V42.4909H127.984C127.938 42.4909 127.891 42.4676 127.891 42.3977L127.868 41.6057C127.658 41.8852 127.402 42.1182 127.099 42.3045C126.796 42.4909 126.47 42.5608 126.121 42.5608C125.888 42.5608 125.678 42.5142 125.445 42.4443C125.259 42.3744 125.096 42.2579 124.979 42.1182C124.839 41.9551 124.746 41.7687 124.7 41.5824C124.63 41.3494 124.606 41.0932 124.606 40.8602V37.925H124.839V40.8602C124.839 41.0699 124.863 41.3028 124.909 41.5125C124.956 41.6755 125.026 41.8386 125.142 42.0017C125.259 42.1415 125.398 42.2346 125.562 42.3045C125.748 42.3744 125.934 42.421 126.144 42.3977C126.47 42.3977 126.796 42.3045 127.076 42.1415C127.379 41.9551 127.635 41.6988 127.845 41.4193V37.9483H128.101V37.925Z" fill="white"/>
<path d="M132.76 42.584C132.504 42.6073 132.271 42.5142 132.084 42.3511C131.898 42.1414 131.828 41.8619 131.851 41.6056V38.2977H131.129C131.059 38.2977 131.036 38.2744 131.036 38.2278V38.1346L131.851 38.1113L131.921 36.3409C131.921 36.3176 131.921 36.2943 131.945 36.2943C131.945 36.271 131.968 36.271 131.991 36.271H132.084V38.1113H133.599V38.2977H132.084V41.5823C132.084 41.6988 132.108 41.8386 132.131 41.9551C132.154 42.0483 132.224 42.1414 132.271 42.2113C132.341 42.2812 132.411 42.3278 132.504 42.3511C132.597 42.3744 132.69 42.3977 132.783 42.3977C132.9 42.3977 132.993 42.3744 133.109 42.3511C133.203 42.3278 133.272 42.2812 133.342 42.2346C133.389 42.188 133.459 42.1647 133.505 42.1181C133.529 42.0948 133.552 42.0715 133.599 42.0715C133.622 42.0715 133.645 42.0948 133.645 42.0948L133.715 42.188C133.669 42.2579 133.599 42.3045 133.529 42.3744C133.459 42.421 133.389 42.4676 133.296 42.5142C133.203 42.5608 133.133 42.584 133.04 42.6073C132.946 42.5608 132.853 42.584 132.76 42.584Z" fill="white"/>
<path d="M136.791 39.1596C136.837 38.9732 136.93 38.7868 137.024 38.6005C137.117 38.4374 137.21 38.3209 137.35 38.1812C137.466 38.0647 137.606 37.9948 137.769 37.9249C137.932 37.855 138.119 37.8317 138.305 37.8317C138.398 37.8317 138.491 37.8317 138.584 37.855C138.678 37.8783 138.748 37.9016 138.841 37.9482L138.817 38.088C138.817 38.1113 138.794 38.1346 138.748 38.1346C138.701 38.1346 138.654 38.1113 138.584 38.1113C138.491 38.088 138.375 38.0647 138.282 38.088C138.095 38.088 137.932 38.1113 137.769 38.1812C137.629 38.251 137.49 38.3442 137.373 38.4374C137.257 38.5772 137.14 38.717 137.07 38.88C136.977 39.0897 136.907 39.276 136.837 39.4857V42.4908H136.581V37.9016H136.698C136.767 37.9016 136.791 37.9249 136.791 37.9948V39.1596Z" fill="white"/>
<path d="M142.125 36.271C142.125 36.3176 142.125 36.3642 142.102 36.3875C142.079 36.4341 142.055 36.4574 142.032 36.4807C142.009 36.504 141.962 36.5273 141.939 36.5506C141.892 36.5739 141.869 36.5739 141.822 36.5739C141.729 36.5739 141.659 36.5506 141.589 36.4807C141.473 36.3642 141.473 36.1545 141.589 36.0381C141.659 35.9915 141.729 35.9449 141.822 35.9449C141.869 35.9449 141.915 35.9449 141.939 35.9682C141.985 35.9915 142.009 36.0148 142.032 36.0381C142.055 36.0614 142.079 36.108 142.102 36.1312C142.125 36.1778 142.125 36.2244 142.125 36.271ZM141.939 37.925V42.4909H141.706V37.925H141.939Z" fill="white"/>
<path d="M149.021 42.491H148.788V38.2745H145.969V41.5591C145.969 41.6756 145.992 41.8154 146.016 41.9319C146.039 42.025 146.109 42.1182 146.156 42.1881C146.225 42.258 146.295 42.3046 146.389 42.3279C146.482 42.3512 146.575 42.3745 146.668 42.3745C146.785 42.3745 146.878 42.3512 146.994 42.3279C147.087 42.3046 147.157 42.258 147.227 42.2114C147.274 42.1648 147.344 42.1415 147.39 42.0949C147.414 42.0716 147.437 42.0483 147.483 42.0483C147.507 42.0483 147.53 42.0716 147.53 42.0716L147.6 42.1648C147.553 42.2347 147.483 42.2813 147.414 42.3512C147.344 42.3978 147.274 42.4444 147.181 42.491C147.087 42.5375 147.017 42.5608 146.924 42.5841C146.831 42.6074 146.738 42.6074 146.645 42.6074C146.389 42.6307 146.156 42.5375 145.969 42.3745C145.783 42.1648 145.713 41.8853 145.736 41.629V38.3211H145.014C144.944 38.3211 144.921 38.2978 144.921 38.2512V38.158L145.736 38.1114L145.806 36.341C145.806 36.3177 145.829 36.2944 145.829 36.2944C145.853 36.2711 145.853 36.2711 145.876 36.2711H145.969V38.1114H149.021V42.491ZM149.231 36.2012C149.231 36.2478 149.231 36.2711 149.207 36.3177C149.184 36.3643 149.161 36.3876 149.137 36.4109C149.114 36.4342 149.067 36.4574 149.044 36.4807C148.974 36.504 148.881 36.504 148.811 36.4807C148.765 36.4574 148.741 36.4342 148.718 36.4109C148.695 36.3876 148.671 36.341 148.648 36.3177C148.625 36.2711 148.625 36.2478 148.625 36.2012C148.625 36.0381 148.765 35.8751 148.951 35.8751C148.998 35.8751 149.044 35.8751 149.067 35.8984C149.114 35.9217 149.137 35.9449 149.161 35.9682C149.184 35.9915 149.207 36.0381 149.231 36.0614C149.231 36.1313 149.231 36.1546 149.231 36.2012Z" fill="white"/>
<path d="M154.331 37.855C154.634 37.855 154.914 37.9016 155.193 38.0181C155.45 38.1346 155.659 38.2977 155.822 38.5073C156.009 38.717 156.125 38.9732 156.218 39.2528C156.405 39.8817 156.405 40.5573 156.218 41.1863C156.148 41.4658 156.009 41.6988 155.822 41.9317C155.636 42.1414 155.426 42.2812 155.193 42.3977C154.634 42.6073 154.029 42.6073 153.469 42.3977C153.213 42.3045 153.004 42.1414 152.84 41.9317C152.654 41.7221 152.514 41.4658 152.444 41.1863C152.258 40.5573 152.258 39.8817 152.444 39.2528C152.514 38.9732 152.654 38.717 152.84 38.5073C153.004 38.2977 153.237 38.1346 153.469 38.0181C153.749 37.9016 154.029 37.8318 154.331 37.855ZM154.331 42.3511C154.611 42.3511 154.867 42.3045 155.1 42.188C155.31 42.0948 155.519 41.9317 155.659 41.7454C155.822 41.5357 155.939 41.3028 155.985 41.0698C156.055 40.7903 156.102 40.4874 156.102 40.1846C156.102 39.8817 156.079 39.5789 155.985 39.2994C155.915 39.0431 155.799 38.8102 155.659 38.6238C155.519 38.4374 155.31 38.2744 155.1 38.1812C154.611 37.9715 154.052 37.9715 153.539 38.1812C153.33 38.2744 153.12 38.4374 152.98 38.6238C152.817 38.8335 152.701 39.0664 152.654 39.2994C152.584 39.5789 152.538 39.8817 152.538 40.1846C152.538 40.4874 152.561 40.767 152.654 41.0698C152.724 41.3261 152.84 41.5357 152.98 41.7454C153.12 41.9317 153.33 42.0715 153.539 42.188C153.796 42.3045 154.052 42.3744 154.331 42.3511Z" fill="white"/>
<path d="M159.806 38.8102C160.016 38.5307 160.272 38.2977 160.575 38.1114C160.878 37.9483 161.204 37.8551 161.554 37.8551C161.787 37.8551 161.996 37.9017 162.229 37.9716C162.416 38.0415 162.579 38.1579 162.695 38.321C162.835 38.4841 162.928 38.6704 162.975 38.8568C163.045 39.0898 163.068 39.346 163.068 39.579V42.5142H162.835V39.579C162.835 39.3693 162.812 39.1364 162.765 38.9267C162.718 38.7403 162.649 38.5773 162.532 38.4375C162.416 38.2977 162.276 38.2045 162.113 38.1347C161.926 38.0648 161.74 38.0182 161.53 38.0415C161.204 38.0415 160.878 38.1346 160.599 38.2977C160.296 38.4841 160.039 38.7403 159.853 39.0199V42.4909H159.62V37.9017H159.737C159.783 37.9017 159.83 37.925 159.83 37.9716V37.9949L159.806 38.8102Z" fill="white"/>
<path d="M25.019 19.2187C24.0173 17.7977 24.3434 15.4914 24.3434 15.4914C24.3434 15.4914 26.0207 16.3534 27.5582 16.0272C29.0957 15.7011 31.4485 13.7443 31.4485 13.7443C31.4485 13.7443 28.9559 14.8392 26.9991 14.8858C25.0423 14.9324 23.6679 13.4647 23.6679 13.4647L24.3434 14.8159L22.9224 14.2801L23.4815 15.6778L22.9224 15.3517C23.3883 16.7494 24.1105 18.0539 25.019 19.2187ZM15.0253 4.23976C15.0253 4.23976 13.1849 4.82215 11.7872 7.33805L8.64234 12.9988C8.64234 12.9988 11.4145 10.6926 14.0702 10.3432C16.7258 9.99373 19.6611 11.7875 22.0605 12.067C24.4599 12.3466 23.9474 11.9272 25.2287 12.4863C25.2287 12.4863 26.9758 11.438 26.6963 11.2983C26.4167 11.1585 25.9275 11.1119 25.6946 10.9255C25.4616 10.7392 25.5082 9.5977 24.8792 9.5977C24.2503 9.5977 24.0639 6.98862 21.7577 5.98692C19.4514 4.98522 17.7275 4.51931 16.5395 2.37613C15.8639 1.14147 14.6526 0.256249 13.2781 0C13.2781 0 10.1565 2.42272 9.76052 5.31135C9.3645 8.19998 10.0867 9.66759 10.0867 9.66759C10.0867 9.66759 9.76052 6.01021 11.3213 3.89033C12.8821 1.77045 13.5577 1.32784 13.5577 1.32784C13.5577 1.32784 15.2582 2.05 15.794 3.42442C16.3298 4.79885 18.4963 6.12669 20.0571 6.49942C21.6179 6.87214 22.8292 7.89714 23.1787 8.80566C23.5281 9.71418 23.8309 10.3432 24.2503 10.3665C24.6696 10.3897 24.9258 10.3665 24.9957 10.8324C25.0423 11.1585 25.2753 11.438 25.6014 11.5312C25.415 11.6943 25.2287 11.8341 25.019 11.9505C25.019 11.9505 24.8326 11.7875 23.7378 11.7176C22.6429 11.6477 21.6412 11.6011 20.4531 11.1818C20.1037 11.0653 19.5912 10.8557 18.9855 10.646C20.0571 9.87725 21.2917 9.36475 22.573 9.15509C21.0821 9.15509 19.6145 9.5977 18.4031 10.4363C18.1702 10.3432 17.9139 10.2733 17.6577 10.1801C19.6378 8.0835 21.4781 7.73407 21.4781 7.73407C19.6378 7.73407 17.7974 9.41134 17.1918 10.017C16.4463 9.78407 15.6776 9.621 14.9088 9.52782C16.4929 7.6176 19.2417 7.01192 19.2417 7.01192C17.3315 7.24487 15.5844 8.13009 14.2332 9.50452H14.1866C13.0452 9.5977 11.927 10.0403 11.0418 10.7625C11.0418 10.7858 12.1599 5.87044 15.0253 4.23976ZM45.915 23.9477C44.5173 24.2039 43.3292 25.0658 42.6536 26.3238C41.4656 28.467 39.765 28.9329 37.4355 29.9346C35.1059 30.9363 34.9196 33.5454 34.2906 33.5454C33.6616 33.5454 33.7315 34.6869 33.4752 34.8732C33.219 35.0596 32.7531 35.1062 32.4735 35.2459C32.194 35.3857 33.9411 36.434 33.9411 36.434C35.2224 35.8749 34.7099 36.2942 37.1093 36.0147C39.5087 35.7351 42.444 33.9414 45.0996 34.2908C47.7553 34.6403 50.5275 36.9465 50.5275 36.9465L47.3826 31.2857C45.9849 28.7698 44.1445 28.1874 44.1445 28.1874C47.0099 29.8181 48.1513 34.7334 48.1513 34.7334C47.2428 34.0113 46.1479 33.5687 45.0065 33.4755H44.9832C43.6553 32.1011 41.8849 31.2158 39.998 30.9829C39.998 30.9829 42.7235 31.5886 44.3309 33.4988C43.5621 33.592 42.7934 33.755 42.0479 33.988C41.4423 33.359 39.6019 31.6817 37.7616 31.6817C37.7616 31.6817 39.6019 32.0312 41.582 34.1278C41.3258 34.2209 41.0695 34.2908 40.8366 34.384C39.6019 33.5454 38.1576 33.1028 36.6667 33.1028C37.948 33.3357 39.1826 33.8482 40.2542 34.5937C39.6485 34.8033 39.1127 35.013 38.7633 35.1295C37.5519 35.5488 36.5502 35.5954 35.4786 35.6653C34.4071 35.7351 34.1974 35.8982 34.1974 35.8982C33.9877 35.7817 33.8014 35.642 33.615 35.4789C33.9411 35.3857 34.1741 35.1295 34.2207 34.8033C34.2673 34.3374 34.5468 34.3607 34.9661 34.3374C35.3855 34.3141 35.6883 33.6619 36.0377 32.7766C36.3872 31.8914 37.5985 30.8664 39.1593 30.4704C40.7201 30.0744 42.9099 28.7698 43.4224 27.3954C43.9349 26.021 45.6587 25.3221 45.6587 25.3221C45.6587 25.3221 46.3343 25.7414 47.8951 27.8846C49.4559 30.0278 49.1297 33.6619 49.1297 33.6619C49.1297 33.6619 49.8519 32.1942 49.4559 29.3056C49.0599 26.417 45.8917 23.9477 45.915 23.9477ZM23.9474 12.8358C27.1855 14.3267 29.8179 13.9306 31.4485 11.7409C32.9162 9.69089 35.2224 8.40964 37.7383 8.24657C40.2309 8.03691 44.9832 8.71248 44.9832 8.71248C44.9832 8.71248 43.7485 8.99202 41.3258 9.45793C38.9031 9.92384 36.923 12.9755 36.5968 15.2119C36.2707 17.4483 35.9445 17.7045 34.5002 18.1238C33.0559 18.5431 30.2605 19.5914 29.1656 21.3852C28.0707 23.1789 28.8162 25.1124 28.8162 25.1124C28.2571 23.971 27.1156 23.5051 24.5531 21.9443C21.9906 20.3835 22.9224 16.3301 22.9224 16.3301C22.9224 16.3301 21.5713 19.9875 23.4815 22.3869C25.3917 24.7863 26.1838 23.8778 27.7446 26.0908C29.3054 28.3039 32.986 29.1891 34.8963 27.5585C36.8065 25.9278 40.7434 27.8613 40.7434 27.8613C40.7434 27.8613 37.2724 24.6698 35.1292 25.9511C32.986 27.2323 30.936 27.0227 30.0042 24.6698C29.0724 22.317 31.4252 20.4767 34.8963 19.6846C38.3673 18.8926 36.8764 17.192 38.5303 13.7909C40.1843 10.3897 42.5837 10.0869 44.8434 10.0636C47.103 10.0403 48.6871 7.75737 48.6871 7.75737C48.6871 7.75737 47.7553 7.96703 40.5803 7.05851C33.4054 6.14999 31.8679 9.52782 29.8645 11.8807C27.861 14.2335 23.9474 12.8358 23.9474 12.8358ZM34.873 38.7635L35.5485 37.4124C35.5485 37.4124 34.1741 38.88 32.2173 38.8334C30.2605 38.7868 27.7679 37.692 27.7679 37.692C27.7679 37.692 30.1207 39.6488 31.6582 39.9749C33.1957 40.301 34.873 39.4391 34.873 39.4391C34.873 39.4391 35.1991 41.7454 34.1974 43.1664C35.1059 42.0016 35.8281 40.6971 36.294 39.2993L35.7349 39.6255L36.294 38.251L34.873 38.7635ZM57.19 41.792C56.2115 40.9533 51.2263 37.7385 51.2263 37.7385L52.1814 38.9033C52.1814 38.9033 50.5508 39.2528 48.99 42.3044C47.9417 44.3311 48.7104 46.8936 48.7104 46.8936C48.7104 46.8936 46.8235 48.1749 44.9832 48.4078C43.1428 48.6408 42.1178 48.1283 40.1144 48.8039C40.1144 48.8039 41.3025 47.9186 42.5604 47.8255C43.8184 47.7323 46.4275 45.4959 48.0582 46.5908C48.0582 46.5908 47.3826 45.8686 46.5673 45.9385C45.7519 46.0084 43.469 47.2897 42.6536 47.313C42.2809 47.3363 41.9082 47.4294 41.5587 47.5692C40.8832 47.2897 39.532 46.5675 39.1127 45.3328C38.5536 43.6556 40.0445 38.3675 43.2593 37.692C43.2593 37.692 39.4855 36.1312 36.294 36.7601C36.294 36.7601 37.8315 36.9465 38.2042 37.855C38.5769 38.7635 37.319 39.3226 37.319 41.0931C37.319 42.1414 37.4588 43.1897 37.7383 44.2147C37.7383 44.2147 37.3889 41.9317 37.948 40.4874C38.507 39.0431 41.2093 37.9016 41.2093 37.9016C41.2093 37.9016 38.9264 39.9982 38.3673 43.0499C37.8548 45.8221 39.3923 47.2198 40.8599 47.8255L40.8366 47.8488C40.1377 47.9186 39.4156 47.7323 38.8332 47.313C37.5985 46.451 37.2258 45.5192 35.9911 47.1033C34.4536 49.0601 34.3139 52.3215 32.0542 54.0686C30.5633 55.2334 30.0974 55.2334 30.0974 55.2334C30.0974 55.2334 33.3355 56.5845 35.9911 55.6993C38.4139 54.884 42.1644 49.8522 42.84 48.9203C43.0264 48.9203 43.2127 48.9436 43.3758 48.9669C45.286 49.2698 48.0349 48.2914 49.0832 47.4993C49.0832 47.4993 50.2013 48.5942 50.8536 48.6408C51.5059 48.6874 52.4144 48.1516 52.4144 48.1516C52.4144 48.1516 51.3428 48.5942 50.807 48.1982C50.2712 47.8022 49.0599 47.1266 49.5025 44.5175C49.9451 41.9084 51.3661 41.2794 51.3661 41.2794C51.3661 41.2794 49.386 43.1897 49.8985 45.8453C49.8985 45.8453 50.0383 42.1414 53.3695 40.4408C53.3695 40.4408 56.6309 42.0715 57.2831 42.7937C57.9354 43.5158 57.9354 43.9584 57.2831 44.5408C56.6309 45.1232 55.9553 45.0533 55.7223 45.4726C55.5826 45.6823 55.4894 45.9152 55.4428 46.1482C55.4428 46.1482 56.4678 45.0766 57.2598 44.9834C57.2598 44.9834 55.932 46.0084 55.4428 46.4976C54.9536 46.9868 51.0633 48.1749 52.0883 45.3794C52.0883 45.3794 50.9002 46.3113 50.9934 47.1266C51.0866 47.9419 52.9036 47.9419 54.0917 47.4294C55.2797 46.9169 57.1667 45.1931 57.5627 45.1698C57.9587 45.1465 58.3314 44.8436 58.215 44.5641C58.0752 44.3078 58.0752 44.005 58.2382 43.7488C58.4246 43.4692 58.1684 42.6073 57.19 41.792ZM35.7582 55.047C33.5218 55.7459 32.0309 55.3033 32.0309 55.3033C32.0309 55.3033 35.4786 54.7675 36.9463 52.9504C36.9463 52.9504 34.244 54.651 32.0309 54.7675C32.0309 54.7675 32.9627 54.4413 33.8014 53.23C34.64 52.0186 34.9428 49.9686 36.5036 47.709C37.5752 46.1715 37.6451 48.0118 39.8582 48.3147C39.2059 48.6641 38.6002 49.0834 38.0644 49.5726C39.2292 49.2698 40.4173 49.0601 41.6053 48.9436C40.79 50.1084 37.6917 54.4181 35.7582 55.047ZM55.1167 43.0732C55.1866 43.0732 55.2564 43.0965 55.303 43.1431C55.1633 42.8635 54.8604 42.7471 54.5809 42.8868C54.3013 43.0266 54.1848 43.3294 54.3246 43.609C54.4644 43.8885 54.7672 44.005 55.0468 43.8652C55.1633 43.8186 55.2564 43.7255 55.303 43.609C55.2564 43.6556 55.1866 43.6789 55.1167 43.6789C54.9536 43.6789 54.8138 43.5391 54.8138 43.376C54.8138 43.213 54.9536 43.0732 55.1167 43.0732ZM4.07645 19.7312C4.00656 19.7312 3.93667 19.7079 3.89008 19.6613C4.02986 19.9409 4.3327 20.0573 4.61224 19.9176C4.89179 19.7778 5.00826 19.475 4.86849 19.1954C4.72872 18.9159 4.42588 18.7994 4.14633 18.9392C4.02986 18.9858 3.93667 19.0789 3.89008 19.1954C3.93667 19.1488 4.00656 19.1255 4.07645 19.1255C4.23951 19.1255 4.37929 19.2653 4.37929 19.4284C4.40258 19.6147 4.26281 19.7312 4.07645 19.7312C4.09974 19.7545 4.09974 19.7545 4.07645 19.7312ZM31.4485 50.0152C33.0093 47.8022 33.8014 48.7107 35.7116 46.3113C37.6218 43.9118 36.2707 40.2777 36.2707 40.2777C36.2707 40.2777 37.2025 44.3311 34.64 45.8919C32.0775 47.4527 30.936 47.9186 30.377 49.0601C30.377 49.0601 31.1224 47.1499 30.0275 45.3328C28.9326 43.5158 26.1605 42.4908 24.6929 42.0715C23.2253 41.6522 22.9224 41.3959 22.5963 39.1596C22.2702 36.9232 20.29 33.8715 17.8673 33.4056C15.4446 32.9397 14.2099 32.6369 14.2099 32.6369C14.2099 32.6369 18.9622 31.9613 21.4548 32.1709C23.9707 32.334 26.277 33.6153 27.7446 35.642C29.3752 37.855 32.0076 38.2278 35.2457 36.7368C35.2457 36.7368 31.3088 38.1113 29.3054 35.7817C28.2804 34.5704 27.3718 33.0795 25.7412 32.0312C26.9059 31.9613 28.0474 31.705 29.1423 31.2857C29.1423 31.2857 28.6997 31.2624 27.1855 30.121C24.9258 28.3738 24.7628 25.1124 23.2486 23.1556C22.0139 21.5715 21.6412 22.5034 20.4065 23.3653C19.8241 23.7846 19.1253 23.971 18.4031 23.9011H18.3798C19.8241 23.3187 21.3849 21.921 20.8724 19.1255C20.3133 16.0505 18.0304 13.9539 18.0304 13.9539C18.0304 13.9539 20.7094 15.0954 21.2917 16.563C21.8741 18.0306 21.5014 20.2903 21.5014 20.2903C21.7577 19.2653 21.8974 18.217 21.8974 17.1687C21.8974 15.3983 20.6162 14.8625 21.0122 13.9306C21.4082 12.9988 22.9224 12.8358 22.9224 12.8358C19.731 12.1835 15.9571 13.7676 15.9571 13.7676C19.1952 14.4431 20.6861 19.7312 20.1037 21.4085C19.6844 22.6431 18.3332 23.3653 17.6577 23.6448C17.3082 23.5284 16.9355 23.4352 16.5628 23.4119C15.7474 23.3886 13.4645 22.1306 12.6492 22.0374C11.8338 21.9443 11.1582 22.6664 11.1582 22.6664C12.7889 21.5715 15.398 23.8079 16.656 23.9011C17.9139 23.9943 19.102 24.8795 19.102 24.8795C17.1219 24.1806 16.0736 24.7164 14.2565 24.4835C12.4395 24.2505 10.5293 22.9693 10.5293 22.9693C10.5293 22.9693 11.298 20.4068 10.2497 18.3801C8.68893 15.3517 7.05826 14.9789 7.05826 14.9789L8.01337 13.8142C8.01337 13.8142 3.02815 17.0056 2.04975 17.8443C1.07134 18.6829 0.815091 19.5448 0.978158 19.871C1.14123 20.1039 1.14123 20.4301 1.00145 20.6863C0.884977 20.9659 1.23441 21.2687 1.65372 21.292C2.07304 21.3153 3.95997 23.0392 5.14804 23.5516C6.3361 24.0641 8.15314 24.0641 8.24632 23.2488C8.3395 22.4335 7.12814 21.4551 7.12814 21.4551C8.12985 24.2505 4.26281 23.0857 3.77361 22.5732C3.2844 22.0607 1.95657 21.059 1.95657 21.059C2.7719 21.1522 3.77361 22.2238 3.77361 22.2238C3.72702 21.9676 3.63383 21.7346 3.49406 21.525C3.26111 21.1289 2.56225 21.1988 1.93327 20.5931C1.30429 19.9875 1.281 19.5448 1.93327 18.846C2.58554 18.1471 5.8469 16.5164 5.8469 16.5164C9.15484 18.217 9.29461 21.921 9.29461 21.921C9.80711 19.2653 7.82701 17.3551 7.82701 17.3551C7.82701 17.3551 9.24802 18.0073 9.69064 20.5931C10.1332 23.1789 8.92189 23.8545 8.38609 24.2738C7.8503 24.6931 6.77871 24.2272 6.77871 24.2272C6.77871 24.2272 7.68723 24.763 8.3628 24.7164C9.03837 24.6698 10.1332 23.5749 10.1332 23.5749C11.1815 24.3903 13.9304 25.3454 15.8406 25.0426C16.0037 25.0193 16.1901 24.996 16.3764 24.996C16.9122 25.7414 19.4281 29.1193 21.6645 30.8431C20.6395 30.7965 19.6145 30.8431 18.5895 30.9829C11.4145 31.9147 10.4827 31.6817 10.4827 31.6817C10.4827 31.6817 12.0435 33.9647 14.3264 33.988C16.6094 34.0113 19.0088 34.3141 20.6395 37.7153C22.2702 41.1164 20.7792 42.8402 24.2736 43.609C27.7679 44.3777 30.0974 46.2414 29.1656 48.5942C28.2338 50.947 26.1838 51.1567 24.0406 49.8755C21.8974 48.5942 18.4264 51.7857 18.4264 51.7857C18.4264 51.7857 22.3633 49.8522 24.2736 51.4828C26.1838 53.1135 29.8877 52.2283 31.4485 50.0152ZM17.6111 25.0193C18.7991 25.1357 19.9872 25.3454 21.152 25.6482C20.5929 25.159 19.9872 24.7397 19.3582 24.3903C21.5946 24.0874 21.6412 22.2238 22.7128 23.7846C24.2736 26.021 24.5531 28.0943 25.415 29.3056C26.277 30.517 27.1855 30.8431 27.1855 30.8431C24.9724 30.7266 22.2934 29.0261 22.2934 29.0261C23.7611 30.8431 27.1855 31.3789 27.1855 31.3789C27.1855 31.3789 25.9042 31.7749 23.9241 31.2624C23.8076 31.2391 23.6912 31.1925 23.5747 31.1692L23.4582 31.1227C21.5247 30.4704 18.4031 26.1607 17.6111 25.0193Z" fill="white"/>
</svg>
