<svg width="5" height="8" viewBox="0 0 5 8" fill="none" xmlns="http://www.w3.org/2000/svg">
<path d="M4.37589 3.74529C4.03628 3.50398 3.7495 3.19271 3.53064 2.83055C3.30801 2.46839 3.16083 2.06288 3.09291 1.6383L2.90424 0.207149C2.90424 0.12764 2.82876 0.0878906 2.75329 0.0878906C2.7382 0.0878906 2.7231 0.0910508 2.70801 0.097014C2.69669 0.102977 2.68538 0.111724 2.67406 0.122855C2.66274 0.133987 2.65517 0.147124 2.64762 0.161436C2.64385 0.176145 2.64007 0.191645 2.64007 0.207149L2.41367 1.6383C2.36084 2.06328 2.22502 2.47116 2.00993 2.83492C1.79485 3.19827 1.50807 3.50915 1.16847 3.74529L0.979793 3.86457C0.942059 3.86457 0.904297 3.90432 0.904297 3.98383C0.904297 4.02358 0.942059 4.06333 0.979793 4.10309L1.16847 4.22235C1.50053 4.4565 1.78352 4.76104 1.9986 5.11724C2.21369 5.47304 2.3533 5.87256 2.41367 6.28959L2.64007 7.72074C2.64007 7.75254 2.65142 7.78277 2.67406 7.80504C2.69293 7.8277 2.7231 7.84002 2.75329 7.84002C2.82876 7.84002 2.90424 7.80025 2.90424 7.72074L3.09291 6.28959C3.1646 5.87217 3.31551 5.47462 3.53437 5.11961C3.757 4.76461 4.04005 4.45928 4.37589 4.22235L4.56456 4.10309C4.57965 4.08719 4.58718 4.0681 4.59473 4.04743C4.60228 4.02715 4.60228 4.0053 4.60228 3.98383C4.60228 3.90432 4.60229 3.86457 4.56456 3.86457L4.37589 3.74529Z" fill="#91FFAD"/>
</svg>
