<svg width="15" height="34" viewBox="0 0 15 34" fill="none" xmlns="http://www.w3.org/2000/svg">
<path d="M14.0283 15.8474C12.6442 14.8977 11.4691 13.6249 10.5843 12.121C9.70033 10.6161 9.12869 8.91684 8.91167 7.14309L8.02949 0.953357C8.00832 0.816989 7.94303 0.693202 7.84599 0.604224C7.74895 0.515247 7.6263 0.467849 7.50015 0.469784C7.37312 0.467849 7.25049 0.515247 7.15345 0.604224C7.05641 0.693202 6.99115 0.816989 6.97086 0.953357L6.08869 7.14309C5.85403 8.91104 5.27534 10.6035 4.39228 12.1046C3.5101 13.6065 2.34296 14.8832 0.972059 15.8474L0.266326 16.331C0.181637 16.3716 0.110165 16.4393 0.0625269 16.5264C0.0148892 16.6134 -0.00631022 16.714 0.00162939 16.8146C-0.00631022 16.9151 0.0148892 17.0167 0.0625269 17.1028C0.110165 17.1898 0.181637 17.2585 0.266326 17.2981L0.972059 17.7817C2.33855 18.7759 3.49951 20.0719 4.38081 21.5884C5.26211 23.1039 5.84344 24.8051 6.08869 26.5828L6.97086 32.6758C6.99115 32.8121 7.05641 32.936 7.15345 33.0249C7.25049 33.1139 7.37312 33.1613 7.50015 33.1593C7.6263 33.1613 7.74895 33.1139 7.84599 33.0249C7.94303 32.936 8.00832 32.8121 8.02949 32.6758L8.91167 26.5828C9.13927 24.8003 9.71446 23.0914 10.5975 21.5729C11.4797 20.0545 12.6503 18.7614 14.0283 17.7817L14.734 17.2981C14.8187 17.2585 14.8893 17.1898 14.937 17.1028C14.9846 17.0167 15.0057 16.9151 14.9987 16.8146C15.0057 16.714 14.9846 16.6134 14.937 16.5264C14.8893 16.4393 14.8187 16.3716 14.734 16.331L14.0283 15.8474Z" fill="#7300FF"/>
</svg>
