<svg width="5" height="8" viewBox="0 0 5 8" fill="none" xmlns="http://www.w3.org/2000/svg">
<path d="M3.94834 3.47765C3.64156 3.27212 3.38119 2.99821 3.18573 2.6754C2.99026 2.35299 2.86385 1.98884 2.81631 1.60918L2.62763 0.337032C2.62763 0.305626 2.61555 0.275025 2.59442 0.252762C2.57329 0.2305 2.54422 0.217773 2.51441 0.217773C2.48422 0.217773 2.45556 0.2305 2.43442 0.252762C2.41292 0.275025 2.40121 0.305626 2.40121 0.337032L2.21254 1.60918C2.16462 1.98884 2.03859 2.35299 1.84275 2.6754C1.64729 2.99821 1.38691 3.27212 1.08051 3.47765L0.891838 3.59691C0.854104 3.59691 0.854113 3.67641 0.854113 3.71617C0.852226 3.73763 0.854861 3.7595 0.861276 3.77978C0.867691 3.80045 0.877876 3.81954 0.891838 3.83544L1.08051 3.91494C1.37899 4.13001 1.63333 4.40631 1.82767 4.72712C2.02238 5.04834 2.1533 5.40773 2.21254 5.78341L2.40121 7.0953C2.40121 7.12711 2.41292 7.15732 2.43442 7.17958C2.45556 7.20185 2.48422 7.21457 2.51441 7.21457C2.54422 7.21457 2.57329 7.20185 2.59442 7.17958C2.61555 7.15732 2.62763 7.12711 2.62763 7.0953L2.81631 5.78341C2.87555 5.40773 3.0061 5.04834 3.20081 4.72712C3.39552 4.40631 3.64948 4.13001 3.94834 3.91494L4.13701 3.83544C4.15059 3.81954 4.16078 3.80045 4.16757 3.77978C4.17399 3.7595 4.17624 3.73763 4.17473 3.71617C4.17473 3.67641 4.17474 3.59691 4.13701 3.59691L3.94834 3.47765Z" fill="#FF78B9"/>
</svg>
