<svg width="8" height="17" viewBox="0 0 8 17" fill="none" xmlns="http://www.w3.org/2000/svg">
<path d="M7.47609 7.78133C6.74772 7.31281 6.1293 6.69514 5.65929 5.96955C5.18929 5.24424 4.88144 4.42741 4.755 3.57425L4.31524 0.623832C4.29875 0.556355 4.26026 0.495983 4.20529 0.451727C4.15032 0.407471 4.08162 0.381517 4.0129 0.377965C3.94144 0.376873 3.87273 0.400911 3.81501 0.445987C3.76004 0.49079 3.72431 0.553896 3.71057 0.623832L3.2708 3.57425C3.13887 4.42933 2.82551 5.2467 2.35276 5.97201C1.87725 6.69732 1.25335 7.31418 0.522235 7.78133L0.137428 8.0272C0.0961999 8.05561 0.0632238 8.09221 0.0412352 8.13483C0.0164981 8.17718 0.00274857 8.22444 0 8.27306C0 8.32224 0.0137469 8.37005 0.038484 8.41294C0.0604725 8.45583 0.0961999 8.49216 0.137428 8.51893L0.522235 8.7648C1.2561 9.23769 1.88 9.85946 2.35276 10.5891C2.82551 11.3191 3.13887 12.1406 3.2708 12.9992L3.71057 15.9496C3.72431 16.0196 3.76004 16.0827 3.81501 16.1277C3.87273 16.1725 3.94144 16.1966 4.0129 16.1955C4.08162 16.1919 4.15032 16.166 4.20529 16.122C4.26026 16.0777 4.29875 16.0174 4.31524 15.9496L4.755 12.9992C4.88144 12.1422 5.18929 11.3216 5.65929 10.5916C6.12655 9.86164 6.74772 9.23905 7.47609 8.7648L7.88838 8.51893C7.92686 8.4908 7.95711 8.45364 7.97635 8.41048C7.99559 8.36731 8.00382 8.32005 7.99833 8.27306C8.00108 8.22635 7.99284 8.17991 7.9736 8.13729C7.95436 8.09467 7.92411 8.05697 7.88838 8.0272L7.47609 7.78133Z" fill="#3F99F2"/>
</svg>
