<svg width="72" height="28" viewBox="0 0 72 28" fill="none" xmlns="http://www.w3.org/2000/svg">
<path d="M71.2587 27.6368H70.504C70.8058 18.6522 69.221 12.8083 65.6362 9.8267C62.0515 6.84511 56.0517 6.64635 47.6369 9.38941C47.5351 9.41684 47.4256 9.40254 47.335 9.34967C47.2407 9.28487 47.1728 9.18548 47.1464 9.07138C46.9124 7.47325 46.2898 5.96615 45.3352 4.69758C44.3843 3.42941 43.1353 2.4435 41.7127 1.83605C38.0902 0.285625 33.5997 1.16022 29.7508 4.14181C20.3927 11.3374 21.4116 24.2178 21.4116 24.3371C21.4116 24.419 21.3927 24.4997 21.3512 24.5701C21.3134 24.6404 21.2531 24.6973 21.1852 24.7347C21.1172 24.7728 21.0417 24.7856 20.9663 24.7712C20.8908 24.7565 20.8191 24.716 20.7701 24.6552C15.9024 20.0834 12.5062 18.2944 9.75162 18.8112C6.99701 19.328 4.50653 22.4289 1.67646 27.6368H0.808594C3.86508 21.9916 6.35552 18.6125 9.60068 18.0161C12.8458 17.4198 15.9023 19.169 20.6191 23.4625C20.5814 20.2822 21.1097 9.82672 29.298 3.50575C33.3734 0.365139 38.1279 -0.549215 41.9768 1.12048C43.4597 1.72991 44.7729 2.72299 45.7955 4.00865C46.8181 5.29391 47.5162 6.83002 47.8256 8.47506C56.2781 5.81151 62.2402 6.05002 66.0891 9.23038C69.938 12.4107 71.5605 18.3739 71.2587 27.6368Z" fill="#808AFF"/>
</svg>
