<svg width="5" height="9" viewBox="0 0 5 9" fill="none" xmlns="http://www.w3.org/2000/svg">
<path d="M4.56055 4.36287C4.19754 4.10446 3.88963 3.76973 3.65605 3.37974C3.4221 2.98975 3.26739 2.55284 3.20211 2.09685L2.9757 0.506672C2.93796 0.427163 2.90023 0.347656 2.82476 0.347656C2.78476 0.347656 2.74628 0.364355 2.71798 0.394171C2.68968 0.423987 2.67383 0.464532 2.67383 0.506672L2.44742 2.09685C2.37497 2.55562 2.21384 2.99333 1.97347 3.38332C1.7331 3.77331 1.41915 4.10685 1.05124 4.36287L0.824846 4.48213C0.787112 4.52188 0.787109 4.56164 0.787109 4.64115C0.787109 4.68091 0.787112 4.76041 0.824846 4.76041L1.05124 4.91943C1.42255 5.17187 1.73877 5.50462 1.97952 5.89501C2.21988 6.2858 2.3795 6.72547 2.44742 7.18543L2.67383 8.77561C2.67383 8.85512 2.74929 8.89489 2.82476 8.89489C2.90023 8.89489 2.93796 8.85512 2.9757 8.77561L3.20211 7.18543C3.26286 6.72786 3.41569 6.28936 3.65002 5.89858C3.88397 5.50779 4.19452 5.17425 4.56055 4.91943L4.78696 4.76041C4.82469 4.76041 4.86242 4.68091 4.86242 4.64115C4.86242 4.61054 4.85562 4.57992 4.84241 4.55249C4.82921 4.52466 4.81035 4.50081 4.78696 4.48213L4.56055 4.36287Z" fill="#FF78B9"/>
</svg>
