<svg width="134" height="48" viewBox="0 0 134 48" fill="none" xmlns="http://www.w3.org/2000/svg">
<path d="M126.8 47.3527C127.747 47.3635 128.686 47.1532 129.547 46.7369C130.407 46.3203 131.169 45.7081 131.781 44.944C132.388 44.1803 132.83 43.2835 133.071 42.3182C133.313 41.353 133.35 40.3436 133.177 39.3621C131.369 29.0879 126.434 19.713 119.125 12.6526C111.812 5.5922 102.518 1.22993 92.6464 0.224538C82.7713 -0.781252 72.8584 1.62469 64.3984 7.07862C55.9383 12.5325 49.3914 20.7383 45.7463 30.4571C42.3729 29.6902 38.9315 29.3034 35.4825 29.3042C28.8526 29.2927 22.2906 30.7401 16.2229 33.5536C10.1552 36.367 4.71014 40.4848 0.238615 45.6433C0.117865 45.7916 0.0386318 45.9729 0.0122177 46.1665C-0.0179698 46.3601 0.00846824 46.558 0.083937 46.7373C0.159406 46.9162 0.28013 47.0693 0.434841 47.1782C0.589552 47.2872 0.770679 47.3476 0.955577 47.3527H126.8Z" fill="#5865F2" fill-opacity="0.2"/>
</svg>
