<svg width="10" height="19" viewBox="0 0 10 19" fill="none" xmlns="http://www.w3.org/2000/svg">
<path d="M9.00469 9.04678C8.1934 8.49221 7.50669 7.76192 6.98595 6.90521C6.46522 6.0481 6.12555 5.08445 5.98594 4.07747L5.45769 0.618816C5.45769 0.534537 5.42751 0.453446 5.37091 0.393814C5.31431 0.334182 5.23504 0.300785 5.1558 0.300785C5.07278 0.300387 4.98973 0.332584 4.92936 0.391024C4.86521 0.44986 4.82377 0.530959 4.81623 0.618816L4.32566 4.07747C4.1785 5.08683 3.83136 6.05206 3.30685 6.90877C2.77857 7.76548 2.0842 8.49419 1.26914 9.04678L0.854118 9.32506C0.81261 9.35805 0.774868 9.3998 0.752228 9.44751C0.725814 9.49561 0.706898 9.54848 0.703125 9.60334C0.703125 9.65979 0.714486 9.71505 0.744673 9.76395C0.771087 9.81285 0.808837 9.8534 0.854118 9.88163L1.26914 10.1599C2.08043 10.7161 2.77102 11.446 3.2993 12.3023C3.82381 13.1582 4.17472 14.1214 4.32566 15.1292L4.81623 18.5879C4.82377 18.6757 4.86521 18.7568 4.92936 18.8157C4.98973 18.8745 5.07278 18.9067 5.1558 18.9059C5.23504 18.9059 5.31431 18.8725 5.37091 18.8129C5.42751 18.7532 5.45769 18.6721 5.45769 18.5879L5.98594 15.1292C6.12933 14.1242 6.47277 13.1618 6.99351 12.3059C7.51424 11.4495 8.19717 10.7185 9.00469 10.1599L9.4198 9.88163C9.46886 9.85738 9.51039 9.81762 9.5368 9.76753C9.56322 9.71783 9.57448 9.66059 9.5707 9.60334C9.5707 9.54689 9.55566 9.49164 9.52925 9.44274C9.50283 9.39384 9.46508 9.35328 9.4198 9.32506L9.00469 9.04678Z" fill="#404EED"/>
</svg>
