<svg width="2" height="5" viewBox="0 0 2 5" fill="none" xmlns="http://www.w3.org/2000/svg">
<path d="M1.87389 2.48276C1.71729 2.38457 1.58259 2.25179 1.47844 2.09436C1.37429 1.93654 1.30335 1.75724 1.27015 1.56841L1.19467 0.892578H1.08148L0.968277 1.56841C0.941485 1.75486 0.877337 1.93295 0.779605 2.09077C0.681873 2.2486 0.553199 2.38218 0.402261 2.48276L0.326788 2.56227C0.316599 2.56227 0.307172 2.56663 0.300002 2.57419C0.292833 2.58134 0.289062 2.59168 0.289062 2.60202C0.289062 2.61275 0.292833 2.62268 0.300002 2.63024C0.307172 2.63779 0.316599 2.64179 0.326788 2.64179L0.402261 2.72128C0.553199 2.82186 0.681873 2.95583 0.779605 3.11365C0.877337 3.27148 0.941485 3.4496 0.968277 3.63565L1.08148 4.31146H1.19467L1.27015 3.63565C1.30335 3.44682 1.37429 3.26751 1.47844 3.11009C1.58259 2.95226 1.71729 2.81987 1.87389 2.72128L1.94936 2.64179L1.87389 2.48276Z" fill="#FFC619"/>
</svg>
