<svg width="5" height="10" viewBox="0 0 5 10" fill="none" xmlns="http://www.w3.org/2000/svg">
<path d="M3.77344 4.93416C3.41043 4.67575 3.10252 4.34102 2.86894 3.95103C2.63499 3.56104 2.48028 3.12413 2.415 2.66814L2.18859 1.07796C2.15085 0.998452 2.11312 0.918945 2.03765 0.918945C1.99766 0.918945 1.95917 0.935644 1.93087 0.96546C1.90257 0.995276 1.88672 1.03582 1.88672 1.07796L1.66031 2.66814C1.58786 3.12691 1.42673 3.56462 1.18636 3.95461C0.945994 4.3446 0.632044 4.67814 0.264134 4.93416L0.0377367 5.05341C2.30256e-06 5.09317 0 5.13293 0 5.21244C0 5.2522 2.30256e-06 5.3317 0.0377367 5.3317L0.264134 5.49072C0.63544 5.74316 0.951662 6.07591 1.19241 6.4663C1.43278 6.85708 1.59239 7.29676 1.66031 7.75672L1.88672 9.3469C1.88672 9.42641 1.96219 9.46618 2.03765 9.46618C2.11312 9.46618 2.15085 9.42641 2.18859 9.3469L2.415 7.75672C2.47575 7.29914 2.62858 6.86065 2.86291 6.46986C3.09686 6.07908 3.40741 5.74554 3.77344 5.49072L3.99985 5.3317C4.03758 5.3317 4.07531 5.2522 4.07531 5.21244C4.07531 5.18183 4.06851 5.15121 4.05531 5.12378C4.0421 5.09595 4.02324 5.0721 3.99985 5.05341L3.77344 4.93416Z" fill="#B756FE"/>
</svg>
