<svg width="86" height="45" viewBox="0 0 86 45" fill="none" xmlns="http://www.w3.org/2000/svg">
<path d="M83.9469 32.7214C82.4375 31.33 80.098 30.6144 77.3057 30.6144C74.936 30.653 72.5851 31.0549 70.3248 31.807L68.8155 32.3238C68.8607 31.1706 68.7324 30.0169 68.4381 28.9049C67.608 25.4065 65.4194 22.5442 62.1365 20.5963C57.231 17.6544 50.3256 17.1774 43.7221 19.2844C42.4316 19.6871 41.1675 20.1924 39.9487 20.795C39.3826 18.8606 38.5978 17.0052 37.6092 15.2691C31.6849 4.77395 19.3834 -1.388 10.1762 1.55383C6.25181 2.78622 3.30857 5.60879 1.9124 9.42523C0.101148 14.3548 0.893533 20.4372 4.13869 26.1619C8.93095 34.7091 18.1381 40.5928 26.5906 40.6325C26.6661 41.1493 26.7417 41.6662 26.8549 42.1432C27.1001 43.0942 27.4397 44.0137 27.8737 44.8863H28.7416C28.2322 43.9675 27.851 42.9769 27.6095 41.9445C27.4699 41.37 27.368 40.7852 27.3076 40.1952C27.3001 40.097 27.2548 40.0056 27.1831 39.9396C27.1152 39.8736 27.0246 39.837 26.9303 39.8374H26.6662C18.4401 39.8374 9.45931 34.073 4.78025 25.7644C1.68603 20.2385 0.893588 14.3945 2.59163 9.70351C3.91234 6.1256 6.70466 3.50181 10.4026 2.30918C19.2702 -0.513393 31.1942 5.48953 36.9676 15.6667C37.9864 17.4894 38.7864 19.4394 39.3449 21.4709C39.3902 21.577 39.4694 21.6617 39.5713 21.7094C39.6694 21.7495 39.7751 21.7495 39.8732 21.7094C41.1864 21.0367 42.5485 20.4786 43.9485 20.0397C50.3633 18.0122 57.0046 18.4495 61.7592 21.2721C64.8534 23.1406 66.9287 25.8438 67.7211 29.1037C68.0305 30.3341 68.1324 31.6126 68.023 32.8804C68.0268 33.016 68.0797 33.1444 68.174 33.2382C68.2268 33.2839 68.291 33.3117 68.3551 33.3189C68.423 33.3261 68.491 33.3117 68.5513 33.2779L70.5512 32.5624C76.0604 30.8132 81.0037 31.0915 83.4564 33.3177C84.7771 34.4706 85.3054 36.1005 85.0412 38.0087C84.7771 39.917 83.5318 42.6203 81.6074 44.8863H82.5885C84.362 42.66 85.5318 40.3145 85.7959 38.128C86.0601 35.9415 85.4563 34.0333 83.9469 32.7214Z" fill="#808AFF"/>
</svg>
